<svg xmlns="http://www.w3.org/2000/svg" width="126" height="126" viewBox="0 0 126 126">
  <path id="communication" d="M52.493,47.5H89.507a2.032,2.032,0,0,0,2.021-2.249A20.583,20.583,0,0,0,78.383,28.177a11.443,11.443,0,1,0-14.765,0A20.582,20.582,0,0,0,50.473,45.25,2.032,2.032,0,0,0,52.493,47.5ZM71,12.065a7.379,7.379,0,1,1-7.379,7.379A7.387,7.387,0,0,1,71,12.065Zm0,18.822A16.542,16.542,0,0,1,87.09,43.434H54.911A16.542,16.542,0,0,1,71,30.887ZM37.73,32.18l-4.8,1.086a2.032,2.032,0,0,1-.9-3.964l12.068-2.732a2.032,2.032,0,0,1,2.454,2.314L44.731,39.928a2.032,2.032,0,1,1-4.01-.664l.863-5.214A63.533,63.533,0,0,0,23.522,84.225a2.032,2.032,0,0,1-1.84,2.208q-.094.008-.186.008a2.032,2.032,0,0,1-2.021-1.848A67.635,67.635,0,0,1,37.73,32.18Zm57.231-6.966a2.032,2.032,0,0,1,2.862-.26,67.636,67.636,0,0,1,24.152,49.969l2.623-4.158a2.032,2.032,0,1,1,3.438,2.168l-6.6,10.465a2.033,2.033,0,0,1-1.659.947h-.06a2.032,2.032,0,0,1-1.652-.849l-6.517-9.1a2.032,2.032,0,1,1,3.3-2.366l3.077,4.3a63.534,63.534,0,0,0-22.707-48.25,2.032,2.032,0,0,1-.261-2.862Zm-25.7,95.3a67.15,67.15,0,0,1-15.744-1.873l3.338,3.61a2.032,2.032,0,0,1-2.984,2.76l-8.4-9.085a2.032,2.032,0,0,1,.777-3.282L56.722,108.7a2.032,2.032,0,1,1,1.43,3.8L53.2,114.369a63.3,63.3,0,0,0,41.042-3.055,2.032,2.032,0,1,1,1.6,3.736,67.476,67.476,0,0,1-26.587,5.462ZM57.64,60.263a2.032,2.032,0,0,1,2.032-2.032H70.646a2.032,2.032,0,1,1,0,4.065H59.672a2.032,2.032,0,0,1-2.032-2.032Zm-10.2,0A2.032,2.032,0,0,1,49.47,58.23h3.252a2.032,2.032,0,1,1,0,4.065H49.47A2.032,2.032,0,0,1,47.438,60.263ZM66.588,97.619H84.679l7.6,7.916a2.032,2.032,0,0,0,3.5-1.408V97.619H97.3a6.232,6.232,0,0,0,6.225-6.225V70.38A6.232,6.232,0,0,0,97.3,64.155H81.638V57.307a6.232,6.232,0,0,0-6.225-6.225H44.7a6.232,6.232,0,0,0-6.225,6.225V78.321A6.232,6.232,0,0,0,44.7,84.546h1.516v6.509a2.032,2.032,0,0,0,3.5,1.408l7.6-7.916h3.041v6.848a6.232,6.232,0,0,0,6.225,6.225ZM97.3,68.22a2.163,2.163,0,0,1,2.161,2.161V91.394A2.163,2.163,0,0,1,97.3,93.555H93.749a2.032,2.032,0,0,0-2.032,2.032v3.492l-4.707-4.9a2.033,2.033,0,0,0-1.466-.624H66.588a2.163,2.163,0,0,1-2.161-2.161V70.38a2.163,2.163,0,0,1,2.161-2.161ZM56.456,80.482a2.033,2.033,0,0,0-1.466.624l-4.707,4.9V82.514a2.032,2.032,0,0,0-2.032-2.032H44.7a2.163,2.163,0,0,1-2.161-2.161V57.307A2.163,2.163,0,0,1,44.7,55.147H75.413a2.163,2.163,0,0,1,2.161,2.161v6.848H66.588A6.2,6.2,0,0,0,62.4,65.782H49.47a2.032,2.032,0,0,0,0,4.065H60.387c-.015.176-.024.354-.024.534v2.953H49.47a2.032,2.032,0,0,0,0,4.065H60.363v3.084Zm23.568-7.146A2.032,2.032,0,0,1,82.056,71.3H92.53a2.032,2.032,0,0,1,0,4.065H82.056A2.032,2.032,0,0,1,80.024,73.335Zm-10.7,7.552a2.032,2.032,0,0,1,2.032-2.032H92.53a2.032,2.032,0,0,1,0,4.065H71.355A2.032,2.032,0,0,1,69.323,80.887Zm0,7.552a2.032,2.032,0,0,1,2.032-2.032H92.53a2.032,2.032,0,0,1,0,4.065H71.355A2.032,2.032,0,0,1,69.323,88.439Zm0-15.1A2.032,2.032,0,0,1,71.355,71.3h3.752a2.032,2.032,0,1,1,0,4.064H71.355A2.032,2.032,0,0,1,69.323,73.335Zm-33.4,41.344a11.444,11.444,0,1,0-14.766,0A20.583,20.583,0,0,0,8.012,131.751,2.032,2.032,0,0,0,10.033,134H47.046a2.032,2.032,0,0,0,2.021-2.248,20.582,20.582,0,0,0-13.144-17.072ZM28.54,98.566a7.379,7.379,0,0,1,.005,14.758h-.01a7.379,7.379,0,0,1,.005-14.758ZM12.45,129.935a16.541,16.541,0,0,1,16.084-12.547h.011a16.542,16.542,0,0,1,16.084,12.546Zm121.539,1.816a20.583,20.583,0,0,0-13.145-17.072,11.444,11.444,0,1,0-14.765,0,20.582,20.582,0,0,0-13.145,17.072A2.032,2.032,0,0,0,94.954,134h37.013a2.032,2.032,0,0,0,2.021-2.249ZM113.461,98.566a7.379,7.379,0,0,1,.005,14.758h-.01a7.379,7.379,0,0,1,.005-14.758ZM97.372,129.935a16.541,16.541,0,0,1,16.084-12.547h.011a16.542,16.542,0,0,1,16.084,12.546Z" transform="translate(-8 -8)" fill="#ed1c23"/>
</svg>
