<svg xmlns="http://www.w3.org/2000/svg" width="125.986" height="126" viewBox="0 0 125.986 126">
  <g id="deal-2" transform="translate(0.002)">
    <path id="Path_115858" data-name="Path 115858" d="M125.861,255.256l-13.78-36a1.845,1.845,0,0,0-2.338-1.08l-14.518,5.18a1.85,1.85,0,0,0-1.1,2.419l1.262,3.2-9.907,4.7-16.26-3.054a11.713,11.713,0,0,0-9.124,2.1l-2.906,2.156-1.924-1.385A11.764,11.764,0,0,0,45.1,231.769l-6.24,1.858L30.69,228.74l1.174-2.968a1.85,1.85,0,0,0-1.1-2.419l-14.528-5.182a1.846,1.846,0,0,0-2.343,1.08l-13.775,36a1.843,1.843,0,0,0,.984,2.352l13.78,5.938a1.846,1.846,0,0,0,2.448-1.016l1.388-3.511,11.422,6.437a5.8,5.8,0,0,0,4.774,9.095h.145a5.8,5.8,0,0,0,5.783,5.281H41a5.788,5.788,0,0,0,5.778,5.286h.145A5.8,5.8,0,0,0,56.8,288.7L59,286.514l2.968,2.215a6.5,6.5,0,0,0,8.509-.64l.209-.212a6.521,6.521,0,0,0,1.772-3.477,6.5,6.5,0,0,0,6.353-1.651l.153-.153a6.462,6.462,0,0,0,1.855-3.841,6.459,6.459,0,0,0,6.425-1.636l.1-.1a6.4,6.4,0,0,0,1.841-3.718,6.486,6.486,0,0,0,7.766-8l10.726-5.251.984,2.48a1.841,1.841,0,0,0,2.448,1.016l13.78-5.938a1.843,1.843,0,0,0,.974-2.345ZM14.6,259.4,4.2,254.922l12.493-32.665,3.064,1.09-5.906,16.787a1.848,1.848,0,0,0,3.484,1.23l5.891-16.769,4.491,1.6Zm21.819,10.839a2.114,2.114,0,0,1-2.995-2.982l3.937-3.937a2.116,2.116,0,0,1,3.61,1.5,2.092,2.092,0,0,1-.62,1.494Zm6.255,4.961c-.111.108-.209.224-.308.34l-.02-.022a2.114,2.114,0,1,1-2.99-2.987l3.612-3.61c.108-.108.212-.221.31-.337l.017.017a2.114,2.114,0,0,1,2.99,2.987Zm5.591,5.591a2.114,2.114,0,0,1-2.987-2.982l3.937-3.937a2.114,2.114,0,1,1,2.985,2.982Zm9.862,1.344-3.937,3.937a2.114,2.114,0,0,1-2.99-2.987l3.612-3.61c.108-.108.212-.221.31-.337l.017.017a2.114,2.114,0,0,1,2.99,2.987ZM92.662,268.95a2.773,2.773,0,0,1-3.76.17l-1.439-1.2a1.85,1.85,0,0,0-.359-.389l-3.319-2.667a1.846,1.846,0,0,0-2.315,2.872l2.864,2.311a1.967,1.967,0,0,0,.271.3,2.786,2.786,0,0,1,.123,4.055l-.1.1a2.783,2.783,0,0,1-3.6.3l-2.852-2.042-.03-.022-1.078-.77a1.846,1.846,0,0,0-2.148,3l1.1.785a2.788,2.788,0,0,1,.327,4.227l-.153.153a2.793,2.793,0,0,1-3.819.121L69.3,277.55a1.845,1.845,0,1,0-2.441,2.753l1.046.925a2.788,2.788,0,0,1,.145,4.05l-.209.212a2.8,2.8,0,0,1-3.664.276l-2.658-1.983a5.8,5.8,0,0,0-4.889-8.935H56.48a5.8,5.8,0,0,0-5.78-5.283h-.15a5.785,5.785,0,0,0-5.92-5.256,5.746,5.746,0,0,0-1.676-3.588,5.81,5.81,0,0,0-8.209,0L32.76,262.7l-12.672-7.136,9.223-23.337,8.352,4.993a1.845,1.845,0,0,0,1.476.185l7.018-2.089a8.049,8.049,0,0,1,6.956,1.174l.97.7-9.865,7.32a5.871,5.871,0,0,0-.044,9.395,8.5,8.5,0,0,0,9.6.421l7.746-4.875a12.849,12.849,0,0,0,5.507,5.741c3.388,1.742,7.508,1.786,12.257.133L92.32,264.72a2.793,2.793,0,0,1,.342,4.237Zm2.372-6.831L80.642,251.76a1.848,1.848,0,0,0-1.747-.221c-4.109,1.594-7.522,1.722-10.15.391a9.875,9.875,0,0,1-4.555-5.66,1.845,1.845,0,0,0-2.768-1.107l-9.616,6.031a4.788,4.788,0,0,1-5.413-.246,2.175,2.175,0,0,1,.017-3.484L62.29,235.677a8.017,8.017,0,0,1,6.243-1.437L85.383,237.4a1.831,1.831,0,0,0,1.132-.145L96.742,232.4l9.565,24.2Zm16.351-2.721L98.258,226.179l4.493-1.6,5.888,16.769a1.848,1.848,0,0,0,3.484-1.23l-5.906-16.787,3.064-1.09L121.774,254.9Z" transform="translate(0 -164.406)" fill="#ed1c23"/>
    <path id="Path_115859" data-name="Path 115859" d="M167.413,57.826A28.913,28.913,0,1,0,138.5,28.913,28.913,28.913,0,0,0,167.413,57.826Zm0-54.135a25.222,25.222,0,1,1-25.222,25.222A25.222,25.222,0,0,1,167.413,3.691Z" transform="translate(-104.421 0)" fill="#ed1c23"/>
    <path id="Path_115860" data-name="Path 115860" d="M190.031,73.062A21.531,21.531,0,1,0,168.5,51.531,21.531,21.531,0,0,0,190.031,73.062Zm0-39.371a17.84,17.84,0,1,1-17.84,17.84A17.84,17.84,0,0,1,190.031,33.691Z" transform="translate(-127.039 -22.618)" fill="#ed1c23"/>
    <path id="Path_115861" data-name="Path 115861" d="M406.94,111.846a1.845,1.845,0,0,0,1.845,1.845h10.227a1.846,1.846,0,0,0,0-3.691H408.785A1.846,1.846,0,0,0,406.94,111.846Z" transform="translate(-306.807 -82.933)" fill="#ed1c23"/>
    <path id="Path_115862" data-name="Path 115862" d="M393.161,58.175a1.846,1.846,0,0,0,.935-.246l7.667-4.505a1.852,1.852,0,1,0-1.868-3.2l-7.67,4.513a1.845,1.845,0,0,0,.935,3.445Z" transform="translate(-295.016 -37.676)" fill="#ed1c23"/>
    <path id="Path_115863" data-name="Path 115863" d="M392.27,155.108l7.67,4.513a1.852,1.852,0,0,0,1.868-3.2l-7.667-4.5a1.845,1.845,0,1,0-1.87,3.182Z" transform="translate(-295.06 -114.345)" fill="#ed1c23"/>
    <path id="Path_115864" data-name="Path 115864" d="M50.346,113.691H60.572a1.846,1.846,0,1,0,0-3.691H50.346a1.846,1.846,0,0,0,0,3.691Z" transform="translate(-36.568 -82.933)" fill="#ed1c23"/>
    <path id="Path_115865" data-name="Path 115865" d="M75.366,53.424l7.667,4.5a1.845,1.845,0,1,0,1.87-3.182l-7.67-4.52a1.852,1.852,0,0,0-1.868,3.2Z" transform="translate(-56.13 -37.676)" fill="#ed1c23"/>
    <path id="Path_115866" data-name="Path 115866" d="M83.033,151.971l-7.667,4.5a1.852,1.852,0,1,0,1.868,3.2l7.67-4.505a1.845,1.845,0,1,0-1.87-3.182Z" transform="translate(-56.13 -114.39)" fill="#ed1c23"/>
    <path id="Path_115867" data-name="Path 115867" d="M216.021,99.128a1.848,1.848,0,0,0,2.707,0l12.633-13.534a1.849,1.849,0,0,0-2.707-2.52L217.372,95.162l-5.7-6.11a1.849,1.849,0,0,0-2.707,2.52Z" transform="translate(-157.171 -62.189)" fill="#ed1c23"/>
  </g>
</svg>
