<svg xmlns="http://www.w3.org/2000/svg" xmlns:xlink="http://www.w3.org/1999/xlink" width="125.774" height="125.999" viewBox="0 0 125.774 125.999">
  <defs>
    <clipPath id="clip-path">
      <path id="path753" d="M0-682.665H125.774v126H0Z" transform="translate(0 682.665)" fill="#ed1c23"/>
    </clipPath>
  </defs>
  <g id="g747" transform="translate(0 682.665)">
    <g id="g749" transform="translate(0 -682.665)">
      <g id="g751" clip-path="url(#clip-path)">
        <g id="g757" transform="translate(12.732 15.922)">
          <path id="path759" d="M-81.941-13.141a17.152,17.152,0,0,0-14.54-2.223A4.866,4.866,0,0,0-99.7-12.142c-2.586,8.418,2.16,14.978,4.494,17.563" transform="translate(100.447 16.116)" fill="none" stroke="#ed1c23" stroke-linecap="round" stroke-linejoin="round" stroke-width="3.5"/>
        </g>
        <g id="g761" transform="translate(20.439 22.864)">
          <path id="path763" d="M0-6.822A4.19,4.19,0,0,1,3.252-8.367,4.205,4.205,0,0,1,7.447-4.409" transform="translate(0 8.367)" fill="none" stroke="#ed1c23" stroke-linecap="round" stroke-linejoin="round" stroke-width="3.5"/>
        </g>
        <g id="g765" transform="translate(94.556 15.922)">
          <path id="path767" d="M0-13.085A17.146,17.146,0,0,1,14.519-15.3a4.865,4.865,0,0,1,3.217,3.222c2.54,8.266-1.99,14.741-4.365,17.419" transform="translate(0 16.047)" fill="none" stroke="#ed1c23" stroke-linecap="round" stroke-linejoin="round" stroke-width="3.5"/>
        </g>
        <g id="g769" transform="translate(97.892 22.864)">
          <path id="path771" d="M-32.958-6.822A4.19,4.19,0,0,0-36.21-8.367,4.205,4.205,0,0,0-40.4-4.46" transform="translate(40.401 8.367)" fill="none" stroke="#ed1c23" stroke-linecap="round" stroke-linejoin="round" stroke-width="3.5"/>
        </g>
        <g id="g773" transform="translate(11.275 13.163)">
          <path id="path775" d="M-125.548-5.894l-6.361-1.283a2.512,2.512,0,0,0-2.864,3.292l2.027,5.821s-13.663,13.439-17.1,18.933c-5.694,9.1-5.73,24.867,2.042,43.6a2.5,2.5,0,0,0,2.975,1.448l2.878-.79,1.561,5.069" transform="translate(153.904 7.228)" fill="none" stroke="#ed1c23" stroke-linecap="round" stroke-linejoin="round" stroke-width="3.5"/>
        </g>
        <g id="g777" transform="translate(86.192 13.163)">
          <path id="path779" d="M-57.985-67.138c-3.277-3.405-5.947-6.032-5.947-6.032l2.027-5.821a2.512,2.512,0,0,0-2.864-3.292l-6.312,1.273" transform="translate(71.081 82.334)" fill="none" stroke="#ed1c23" stroke-linecap="round" stroke-linejoin="round" stroke-width="3.5"/>
        </g>
        <g id="g781" transform="translate(27.202 34.342)">
          <path id="path783" d="M0-283.094l.8,2.59a24.665,24.665,0,0,0,12.62,14.846l9.754,4.832a2.506,2.506,0,0,0,3.175-.823l2.419-3.5,4.895,6.756a2.506,2.506,0,0,0,4.062,0l4.882-6.754,2.418,3.5a2.506,2.506,0,0,0,3.175.823l9.754-4.832A24.665,24.665,0,0,0,70.573-280.5L75.346-296l2.878.79a2.5,2.5,0,0,0,2.975-1.448c7.772-18.729,7.736-34.5,2.042-43.6a60.04,60.04,0,0,0-5.573-6.918" transform="translate(0 347.171)" fill="none" stroke="#ed1c23" stroke-linecap="round" stroke-linejoin="round" stroke-width="3.5"/>
        </g>
        <g id="g785" transform="translate(38.806 1.846)">
          <path id="path787" d="M-154.64-70.3l-9.778-15.328a1.264,1.264,0,0,0-2.133,0L-176.328-70.3-187.5-79.447a1.266,1.266,0,0,0-2.04,1.241l2.914,13.951a5.068,5.068,0,0,0,3.188,3.714L-167.25-54.5a5.054,5.054,0,0,0,3.533,0l16.184-6.037a5.069,5.069,0,0,0,3.188-3.714l2.914-13.951a1.266,1.266,0,0,0-2.039-1.241Z" transform="translate(189.566 86.215)" fill="none" stroke="#ed1c23" stroke-linecap="round" stroke-linejoin="round" stroke-width="3.5"/>
        </g>
        <g id="g789" transform="translate(32.748 39.092)">
          <path id="path791" d="M-69.505-13.833l-4.616-2.761a2.6,2.6,0,0,0-3.391.637A19.275,19.275,0,0,0-80.7,2.164a2.631,2.631,0,0,1-.619,2.689l-3.122,3.138a2.617,2.617,0,0,0-.589,2.772A18.95,18.95,0,0,0-73.89,21.684a2.623,2.623,0,0,1,1.582,3.027l-1.726,7.623a2.612,2.612,0,0,0,.918,2.619l8.263,6.59a2.6,2.6,0,0,0,3.222.018l4.969-3.872a2.6,2.6,0,0,1,3.2,0l4.969,3.871a2.6,2.6,0,0,0,3.222-.018l8.263-6.59a2.612,2.612,0,0,0,.918-2.619l-1.726-7.623a2.623,2.623,0,0,1,1.582-3.027A18.951,18.951,0,0,0-25.094,10.763a2.617,2.617,0,0,0-.589-2.772l-3.122-3.138a2.631,2.631,0,0,1-.619-2.689,19.275,19.275,0,0,0-3.191-18.121,2.6,2.6,0,0,0-3.391-.637L-53.356-6.218a3.326,3.326,0,0,1-3.415,0L-62.5-9.644l-.018.028" transform="translate(85.203 16.964)" fill="none" stroke="#ed1c23" stroke-linecap="round" stroke-linejoin="round" stroke-width="3.5"/>
        </g>
        <g id="g793" transform="translate(62.887 89.929)">
          <path id="path795" d="M0,0V1.772" fill="none" stroke="#ed1c23" stroke-linecap="round" stroke-linejoin="round" stroke-width="3.5"/>
        </g>
        <g id="g797" transform="translate(53.01 80.202)">
          <path id="path799" d="M-29.906-15.046l-5.831-3.406-.923,1.261" transform="translate(36.66 18.452)" fill="none" stroke="#ed1c23" stroke-linecap="round" stroke-linejoin="round" stroke-width="3.5"/>
        </g>
        <g id="g801" transform="translate(66.01 80.202)">
          <path id="path803" d="M-29.9-5.571l-.923-1.261-5.831,3.406" transform="translate(36.659 6.832)" fill="none" stroke="#ed1c23" stroke-linecap="round" stroke-linejoin="round" stroke-width="3.5"/>
        </g>
        <g id="g805" transform="translate(58.68 83.699)">
          <path id="path807" d="M-34.8-13.325l-2.464,2.306a1.737,1.737,0,0,1-2.375,0L-42.1-13.325a1.743,1.743,0,0,1,1.187-3.016h4.929A1.743,1.743,0,0,1-34.8-13.325Z" transform="translate(42.656 16.341)" fill="none" stroke="#ed1c23" stroke-linecap="round" stroke-linejoin="round" stroke-width="3.5"/>
        </g>
        <g id="g809" transform="translate(69.842 59.214)">
          <path id="path811" d="M-57.094,0-69.989,7.331V12" transform="translate(69.989)" fill="none" stroke="#ed1c23" stroke-linecap="round" stroke-linejoin="round" stroke-width="3.5"/>
        </g>
        <g id="g813" transform="translate(67.324 61.628)">
          <path id="path815" d="M-11.145-21.726l-2.517-1.891v-3.026" transform="translate(13.663 26.644)" fill="none" stroke="#ed1c23" stroke-linecap="round" stroke-linejoin="round" stroke-width="3.5"/>
        </g>
        <g id="g817" transform="translate(69.842 60.353)">
          <path id="path819" d="M0-27.356s3.346,4.077,8.129,2.42c5.8-2.01,2.762-8.612,2.762-8.612Z" transform="translate(0 33.548)" fill="none" stroke="#ed1c23" stroke-linecap="round" stroke-linejoin="round" stroke-width="3.5"/>
        </g>
        <g id="g821" transform="translate(43.038 59.214)">
          <path id="path823" d="M0,0,12.895,7.331V12" fill="none" stroke="#ed1c23" stroke-linecap="round" stroke-linejoin="round" stroke-width="3.5"/>
        </g>
        <g id="g825" transform="translate(55.933 61.628)">
          <path id="path827" d="M0-21.726l2.517-1.891v-3.026" transform="translate(0 26.644)" fill="none" stroke="#ed1c23" stroke-linecap="round" stroke-linejoin="round" stroke-width="3.5"/>
        </g>
        <g id="g829" transform="translate(44.245 60.353)">
          <path id="path831" d="M-51.748-27.356s-3.346,4.077-8.129,2.42c-5.8-2.01-2.762-8.612-2.762-8.612Z" transform="translate(63.435 33.548)" fill="none" stroke="#ed1c23" stroke-linecap="round" stroke-linejoin="round" stroke-width="3.5"/>
        </g>
        <g id="g833" transform="translate(74.32 91.589)">
          <path id="path835" d="M0,0,3.547,1.677" fill="none" stroke="#ed1c23" stroke-linecap="round" stroke-linejoin="round" stroke-width="3.5"/>
        </g>
        <g id="g837" transform="translate(77.656 86.595)">
          <path id="path839" d="M0,0H3.006" fill="none" stroke="#ed1c23" stroke-linecap="round" stroke-linejoin="round" stroke-width="3.5"/>
        </g>
        <g id="g841" transform="translate(47.908 91.589)">
          <path id="path843" d="M-15.7,0l-3.547,1.677" transform="translate(19.251)" fill="none" stroke="#ed1c23" stroke-linecap="round" stroke-linejoin="round" stroke-width="3.5"/>
        </g>
        <g id="g845" transform="translate(45.112 86.595)">
          <path id="path847" d="M-13.311,0h-3.006" transform="translate(16.317)" fill="none" stroke="#ed1c23" stroke-linecap="round" stroke-linejoin="round" stroke-width="3.5"/>
        </g>
        <g id="g849" transform="translate(22.956 46.265)">
          <path id="path851" d="M-5.072,0l-.952,3.515a5.554,5.554,0,0,0,.74,4.534l1.516,2.272a1.253,1.253,0,0,0,1.889.229L.14,8.7" transform="translate(6.218)" fill="none" stroke="#ed1c23" stroke-linecap="round" stroke-linejoin="round" stroke-width="3.5"/>
        </g>
        <g id="g853" transform="translate(96.46 46.265)">
          <path id="path855" d="M-23.081,0l.952,3.515a5.553,5.553,0,0,1-.74,4.534l-1.516,2.272a1.253,1.253,0,0,1-1.889.229l-2.02-1.85" transform="translate(28.293)" fill="none" stroke="#ed1c23" stroke-linecap="round" stroke-linejoin="round" stroke-width="3.5"/>
        </g>
        <g id="g857" transform="translate(58.585 16.232)">
          <path id="path859" d="M-13.236-2.123l-2.735,3.564a1.232,1.232,0,0,0,0,1.5l2.735,3.564a1.227,1.227,0,0,0,1.948,0l2.735-3.564a1.232,1.232,0,0,0,0-1.5l-2.735-3.564A1.227,1.227,0,0,0-13.236-2.123Z" transform="translate(16.225 2.604)" fill="none" stroke="#ed1c23" stroke-linecap="round" stroke-linejoin="round" stroke-width="3.5"/>
        </g>
        <g id="g861" transform="translate(51.532 96.886)">
          <path id="path863" d="M-1.566,0a2.59,2.59,0,0,0-.326,1.678A15.483,15.483,0,0,0,1.687,9.616a1.213,1.213,0,0,0,1.765.046L5.181,7.93,8.5,11.389a1.214,1.214,0,0,0,1.752,0L13.578,7.93l1.73,1.732a1.212,1.212,0,0,0,1.764-.046,15.481,15.481,0,0,0,3.579-7.938A2.59,2.59,0,0,0,20.325,0" transform="translate(1.919)" fill="none" stroke="#ed1c23" stroke-linecap="round" stroke-linejoin="round" stroke-width="3.5"/>
        </g>
      </g>
    </g>
  </g>
</svg>
