<svg xmlns="http://www.w3.org/2000/svg" width="120" height="120" viewBox="0 0 120 120">
  <g id="Group_443" data-name="Group 443" transform="translate(-107 -6132)">
    <g id="Group_407" data-name="Group 407" transform="translate(-121 925)">
      <circle id="Ellipse_13" data-name="Ellipse 13" cx="60" cy="60" r="60" transform="translate(228 5207)" fill="#fff"/>
    </g>
    <g id="profit" transform="translate(106.5 6132)">
      <path id="Path_116186" data-name="Path 116186" d="M208.844,350.688a2.344,2.344,0,1,0-2.344-2.344A2.345,2.345,0,0,0,208.844,350.688Zm0,0" transform="translate(-157.715 -264.907)" fill="#ed1c23"/>
      <path id="Path_116187" data-name="Path 116187" d="M1.187,91.188l28.127,28.125a2.343,2.343,0,0,0,3.314,0L48.1,103.845a2.343,2.343,0,0,0,0-3.314l-.687-.687H81.2A11.694,11.694,0,0,0,89.181,96.7l28.436-26.648a9.049,9.049,0,0,0-10.954-14.3l-6.313,4.142c-.043-12.7-7.722-26.253-18.293-32.352a7.043,7.043,0,0,0-3.107-11.31c-.115-.038-.231-.072-.346-.108L84.638,5.286A2.344,2.344,0,0,0,83.245,1.9a48.062,48.062,0,0,0-26.73,0,2.343,2.343,0,0,0-1.394,3.391l6.034,10.838c-.117.037-.234.071-.352.11a7.03,7.03,0,0,0-3.095,11.307c-10.728,6.19-18.3,19.877-18.3,32.459,0,.343.008.682.019,1.018a28.8,28.8,0,0,0-11.384,6.106l-7.123,6.232-.95-.95a2.343,2.343,0,0,0-3.314,0L1.187,87.874A2.343,2.343,0,0,0,1.187,91.188ZM60.7,5.668a43.473,43.473,0,0,1,18.362,0l-5.223,9.381a28.58,28.58,0,0,0-7.915,0Zm1.567,15.019a24.256,24.256,0,0,1,15.22,0,2.345,2.345,0,0,1-.586,4.568,22.931,22.931,0,0,0-14.042,0h0a2.342,2.342,0,0,1-.591-4.562Zm1.3,9.27a18.29,18.29,0,0,1,12.35-.1C86.8,33.6,95.663,47.124,95.663,60a22.558,22.558,0,0,1-.2,3.1L84.192,70.495a9.321,9.321,0,0,0-7.281-3.463H72.224V64.285a7.031,7.031,0,0,0-2.344-13.66,2.344,2.344,0,1,1,0-4.688,3.766,3.766,0,0,1,2.535,1.225,2.344,2.344,0,1,0,3.26-3.368,9.045,9.045,0,0,0-3.451-2.158v-2.73a2.344,2.344,0,0,0-4.688,0v2.747a7.031,7.031,0,0,0,2.344,13.66,2.344,2.344,0,1,1,0,4.688,4.241,4.241,0,0,1-3.043-1.773,2.344,2.344,0,0,0-3.588,3.017A9.717,9.717,0,0,0,67.536,64.3v2.736h-.78c-1.152,0-1.669-.751-2.48-1.275A28.756,28.756,0,0,0,44.1,60.148c0-.049,0-.1,0-.148C44.1,47.3,52.83,33.828,63.563,29.957ZM31.132,70.65a24.1,24.1,0,0,1,30.329-1.145,8.313,8.313,0,0,0,5.294,2.214H76.912a4.687,4.687,0,1,1,0,9.375H60.5a2.344,2.344,0,1,0,0,4.688H76.912A9.366,9.366,0,0,0,86.15,74.817l23.017-15.1a4.361,4.361,0,0,1,5.252,6.913L85.984,93.277a7.012,7.012,0,0,1-4.786,1.88H42.723L24.244,76.677ZM18.314,77.377l24.813,24.811L30.971,114.342,6.158,89.531Zm0,0" transform="translate(0 0)" fill="#ed1c23"/>
    </g>
  </g>
</svg>
