<svg xmlns="http://www.w3.org/2000/svg" width="120" height="120" viewBox="0 0 120 120">
  <g id="Group_400" data-name="Group 400" transform="translate(-1549.589 -4941)">
    <circle id="Ellipse_12" data-name="Ellipse 12" cx="60" cy="60" r="60" transform="translate(1549.589 4941)" fill="#f5f5f5"/>
    <g id="red-carpet" transform="translate(1532.508 4925)">
      <path id="Path_115988" data-name="Path 115988" d="M177.6,151.624a30.212,30.212,0,0,1-21.43-8.862l-1.831-1.831,2.589-2.589,1.831,1.831a26.676,26.676,0,0,0,37.682,0l1.831-1.831,2.589,2.589-1.831,1.831A30.212,30.212,0,0,1,177.6,151.624Z" transform="translate(-100.522 -94.349)" fill="#01adef"/>
      <path id="Path_115989" data-name="Path 115989" d="M249.153,40l3.236,7.747,5.917,3.236-5.917,3.236-3.236,7.747-3.236-7.747L240,50.983l5.917-3.236Z" transform="translate(-166.58 -18.508)" fill="#01adef"/>
      <path id="Path_115990" data-name="Path 115990" d="M440,224h7.322v54.915H440Z" transform="translate(-320.817 -160.407)" fill="#35378f"/>
      <path id="Path_115991" data-name="Path 115991" d="M177.9,309.085H112L130.305,256h29.288Z" transform="translate(-67.868 -185.085)" fill="#ed1c23"/>
      <path id="Path_115992" data-name="Path 115992" d="M232.114,309.085h-9.746A40.034,40.034,0,0,1,184.521,256h29.288Z" transform="translate(-122.083 -185.085)" fill="#ed1c23"/>
      <path id="Path_115993" data-name="Path 115993" d="M40,224h7.322v54.915H40Z" transform="translate(-12.342 -160.407)" fill="#2f3093"/>
      <path id="Path_115994" data-name="Path 115994" d="M40,224h3.661v54.915H40Z" transform="translate(-12.342 -160.407)" fill="#2f3093"/>
      <path id="Path_115995" data-name="Path 115995" d="M440,224h3.661v54.915H440Z" transform="translate(-320.817 -160.407)" fill="#2f3093"/>
      <circle id="Ellipse_8" data-name="Ellipse 8" cx="7.5" cy="7.5" r="7.5" transform="translate(23.996 43)" fill="#f5811f"/>
      <path id="Path_115996" data-name="Path 115996" d="M34.98,149.169a7.322,7.322,0,0,1-6.673-10.334,7.322,7.322,0,1,0,9.686,9.686A7.292,7.292,0,0,1,34.98,149.169Z" transform="translate(0 -94.729)" fill="#f5811f"/>
      <ellipse id="Ellipse_9" data-name="Ellipse 9" cx="7" cy="7.5" rx="7" ry="7.5" transform="translate(115.996 43)" fill="#f5811f"/>
      <path id="Path_115997" data-name="Path 115997" d="M434.98,149.169a7.322,7.322,0,0,1-6.673-10.334,7.322,7.322,0,1,0,9.686,9.686A7.292,7.292,0,0,1,434.98,149.169Z" transform="translate(-308.475 -94.729)" fill="#f5811f"/>
      <path id="Path_115998" data-name="Path 115998" d="M136,145.888h7.322v25.2H136Z" transform="translate(-86.376 -100.168)" fill="#2f3093"/>
      <circle id="Ellipse_10" data-name="Ellipse 10" cx="5.5" cy="5.5" r="5.5" transform="translate(47.996 36)" fill="#f5811f"/>
      <path id="Path_115999" data-name="Path 115999" d="M344,145.888h7.322v25.2H344Z" transform="translate(-246.783 -100.168)" fill="#2f3093"/>
      <circle id="Ellipse_11" data-name="Ellipse 11" cx="5.5" cy="5.5" r="5.5" transform="translate(94.996 36)" fill="#f5811f"/>
      <path id="Path_116000" data-name="Path 116000" d="M156.2,225.153l-4.6,4.6a53.031,53.031,0,0,1-75,0l-4.6-4.6V216l2.589,2.589,5.139,5.139a48.612,48.612,0,0,0,68.747,0l5.139-5.139L156.2,216Z" transform="translate(-37.02 -154.237)" fill="#01adef"/>
      <path id="Path_116001" data-name="Path 116001" d="M27.638,456h7.368a3.638,3.638,0,0,1,3.638,3.638v3.684H24v-3.684A3.638,3.638,0,0,1,27.638,456Z" transform="translate(-0.003 -339.322)" fill="#2f3093"/>
      <path id="Path_116002" data-name="Path 116002" d="M27.661,456h-.023A3.638,3.638,0,0,0,24,459.638v3.684H38.644v-3.661H31.322A3.661,3.661,0,0,1,27.661,456Z" transform="translate(-0.003 -339.322)" fill="#2f3093"/>
      <path id="Path_116003" data-name="Path 116003" d="M427.638,456h7.368a3.638,3.638,0,0,1,3.638,3.638v3.684H424v-3.684A3.638,3.638,0,0,1,427.638,456Z" transform="translate(-308.478 -339.322)" fill="#2f3093"/>
      <path id="Path_116004" data-name="Path 116004" d="M427.661,456h-.023A3.638,3.638,0,0,0,424,459.638v3.684h14.644v-3.661h-7.322A3.661,3.661,0,0,1,427.661,456Z" transform="translate(-308.478 -339.322)" fill="#2f3093"/>
      <rect id="Rectangle_44911" data-name="Rectangle 44911" width="15" height="7" rx="3.5" transform="translate(23.996 58)" fill="#2f3093"/>
      <path id="Path_116005" data-name="Path 116005" d="M36.814,205.256H29.492a3.659,3.659,0,0,1-3.627-3.188,3.66,3.66,0,0,0,1.8,6.849h7.322a3.661,3.661,0,0,0,3.661-3.661,3.711,3.711,0,0,0-.034-.473A3.641,3.641,0,0,1,36.814,205.256Z" transform="translate(-0.003 -143.493)" fill="#2f3093"/>
      <rect id="Rectangle_44912" data-name="Rectangle 44912" width="14" height="7" rx="3.5" transform="translate(115.996 58)" fill="#2f3093"/>
      <path id="Path_116006" data-name="Path 116006" d="M436.814,205.256h-7.322a3.659,3.659,0,0,1-3.627-3.188,3.66,3.66,0,0,0,1.8,6.849h7.322a3.661,3.661,0,0,0,3.661-3.661,3.713,3.713,0,0,0-.034-.473A3.641,3.641,0,0,1,436.814,205.256Z" transform="translate(-308.478 -143.493)" fill="#2f3093"/>
      <g id="Group_341" data-name="Group 341" transform="translate(45.963 16)">
        <path id="Path_116007" data-name="Path 116007" d="M192,32h3.661v3.661H192Z" transform="translate(-175.525 -28.339)" fill="#01adef"/>
        <path id="Path_116008" data-name="Path 116008" d="M224,32h3.661v3.661H224Z" transform="translate(-200.203 -28.339)" fill="#01adef"/>
        <path id="Path_116009" data-name="Path 116009" d="M208,16h3.661v3.661H208Z" transform="translate(-187.864 -16)" fill="#01adef"/>
        <path id="Path_116010" data-name="Path 116010" d="M208,48h3.661v3.661H208Z" transform="translate(-187.864 -40.678)" fill="#01adef"/>
        <path id="Path_116011" data-name="Path 116011" d="M208,120h3.661v3.661H208Z" transform="translate(-187.864 -96.203)" fill="#01adef"/>
        <path id="Path_116012" data-name="Path 116012" d="M384,32h3.661v3.661H384Z" transform="translate(-323.593 -28.339)" fill="#01adef"/>
        <path id="Path_116013" data-name="Path 116013" d="M120,40h3.661v3.661H120Z" transform="translate(-120 -34.508)" fill="#01adef"/>
      </g>
    </g>
  </g>
</svg>
