<svg xmlns="http://www.w3.org/2000/svg" width="120" height="130" viewBox="0 0 120 130">
  <g id="Group_404" data-name="Group 404" transform="translate(-228 -5197)">
    <circle id="Ellipse_13" data-name="Ellipse 13" cx="60" cy="60" r="60" transform="translate(228 5207)" fill="#f5f5f5"/>
    <g id="security-guard-3" transform="translate(229 5197)">
      <path id="Path_116057" data-name="Path 116057" d="M64.375,35.688V48.594H57V35.688A3.714,3.714,0,0,1,60.688,32,3.7,3.7,0,0,1,64.375,35.688Z" transform="translate(48.094 27)" fill="#ed1c23"/>
      <path id="Path_116058" data-name="Path 116058" d="M49,37h7.375v7.375H49Z" transform="translate(41.344 31.219)" fill="#ed1c23"/>
      <path id="Path_116059" data-name="Path 116059" d="M71.125,54V66.906a3.7,3.7,0,0,1-3.687,3.688H52.688A3.7,3.7,0,0,1,49,66.906V54Z" transform="translate(41.344 45.563)" fill="#ed1c23"/>
      <path id="Path_116060" data-name="Path 116060" d="M76.5,44.688V61.281a3.7,3.7,0,0,1-3.687,3.688H50.688A3.7,3.7,0,0,1,47,61.281V44.688A3.7,3.7,0,0,1,50.688,41H72.813A3.7,3.7,0,0,1,76.5,44.688ZM69.125,57.594V48.375H54.375v9.219Z" transform="translate(39.656 34.594)" fill="#01adef"/>
      <path id="Path_116061" data-name="Path 116061" d="M51,45H65.75v9.219H51Z" transform="translate(43.031 37.969)" fill="#f5811f"/>
      <path id="Path_116062" data-name="Path 116062" d="M20.219,18V36.438S11,34.594,11,25.375V18Z" transform="translate(9.281 15.188)" fill="#e09b8d"/>
      <path id="Path_116063" data-name="Path 116063" d="M25.75,46.983V58.875L14.688,61.641V55.482a36.089,36.089,0,0,0-1.844-11.357A36.089,36.089,0,0,1,11,32.768V22c0,9.219,9.219,11.063,9.219,11.063A20.221,20.221,0,0,0,25.75,46.983Z" transform="translate(9.281 18.563)" fill="#666"/>
      <path id="Path_116064" data-name="Path 116064" d="M12,59H24.906v7.375H12Z" transform="translate(10.125 49.781)" fill="#245f9b"/>
      <path id="Path_116065" data-name="Path 116065" d="M23.125,44.766,34.188,42l-5.531,9.219L41.563,62.281l3.688,5.531L41.563,80.719H34.188V73.344H21.281v7.375H1V65.969C1,55.515,9.537,48.988,19.438,45.688Z" transform="translate(0.844 35.438)" fill="#2f3093"/>
      <path id="Path_116066" data-name="Path 116066" d="M51.594,57.531s0,11.063-8.3,14.75C35,68.594,35,57.531,35,57.531,41.637,55.688,43.3,52,43.3,52S44.956,55.688,51.594,57.531Z" transform="translate(29.531 43.875)" fill="#f5811f"/>
      <path id="Path_116067" data-name="Path 116067" d="M65.875,77.031a3.7,3.7,0,0,0,3.688,3.688h-21.2c8.3-3.687,8.3-14.75,8.3-14.75-6.637-1.844-8.3-5.531-8.3-5.531s-1.659,3.688-8.3,5.531c0,0,0,11.063,8.3,14.75H32.688L29,67.813l3.688-5.531L45.594,51.219,40.063,42l11.063,3.688,11.063,3.688V60.438a3.7,3.7,0,0,0,3.688,3.688Z" transform="translate(24.469 35.438)" fill="#2f3093"/>
      <path id="Path_116068" data-name="Path 116068" d="M41.75,42l5.531,9.219L34.375,62.281,27,54.906Z" transform="translate(22.781 35.438)" fill="#2f3093"/>
      <path id="Path_116069" data-name="Path 116069" d="M37.75,56.375l-3.687,5.531L37.75,74.813H23l3.688-12.906L23,56.375,30.375,49Z" transform="translate(19.406 41.344)" fill="#ed1c23"/>
      <path id="Path_116070" data-name="Path 116070" d="M36.281,54.906l-7.375,7.375L16,51.219,21.531,42Z" transform="translate(13.5 35.438)" fill="#2f3093"/>
      <path id="Path_116071" data-name="Path 116071" d="M48.5,35.55V47.442L33.75,60.348,19,47.442V35.55a20.517,20.517,0,0,0,14.75,6.361A20.143,20.143,0,0,0,48.5,35.55Z" transform="translate(16.031 29.995)" fill="#e09b8d"/>
      <path id="Path_116072" data-name="Path 116072" d="M49.75,22V32.768a36.089,36.089,0,0,1-1.844,11.357,36.089,36.089,0,0,0-1.844,11.357v7.08L35,58.875V46.983a20.221,20.221,0,0,0,5.531-13.92S49.75,31.219,49.75,22Z" transform="translate(29.531 18.563)" fill="#666"/>
      <path id="Path_116073" data-name="Path 116073" d="M51.031,50.358a20.143,20.143,0,0,1-14.75,6.361,20.517,20.517,0,0,1-14.75-6.361A20.221,20.221,0,0,1,16,36.438V18H56.563V36.438A20.221,20.221,0,0,1,51.031,50.358Z" transform="translate(13.5 15.188)" fill="#f4baa6"/>
      <path id="Path_116074" data-name="Path 116074" d="M47.219,18v7.375C47.219,34.594,38,36.438,38,36.438V18Z" transform="translate(32.063 15.188)" fill="#e09b8d"/>
      <path id="Path_116075" data-name="Path 116075" d="M66.313,17.472A15.969,15.969,0,0,1,70,23.906H11a15.969,15.969,0,0,1,3.688-6.435A19.454,19.454,0,0,1,18.062,14.6,20.573,20.573,0,0,1,29.438,11H51.563a20.652,20.652,0,0,1,14.75,6.472Z" transform="translate(9.281 9.281)" fill="#ed1c23"/>
      <path id="Path_116076" data-name="Path 116076" d="M43.125,16.063H21a11.063,11.063,0,0,1,22.125,0Z" transform="translate(17.719 4.219)" fill="#01adef"/>
      <path id="Path_116077" data-name="Path 116077" d="M64.625,19.438v6.472a20.652,20.652,0,0,0-14.75-6.472,11.063,11.063,0,0,0-22.125,0,20.573,20.573,0,0,0-11.376,3.6A19.454,19.454,0,0,0,13,25.909V19.438A18.444,18.444,0,0,1,31.438,1h14.75A18.444,18.444,0,0,1,64.625,19.438Z" transform="translate(10.969 0.844)" fill="#ed1c23"/>
      <g id="Group_347" data-name="Group 347" transform="translate(0 0)">
        <path id="Path_116078" data-name="Path 116078" d="M27.844,34.219a1.844,1.844,0,0,0,1.844-1.844V26.844a1.844,1.844,0,0,0-3.687,0v5.531A1.844,1.844,0,0,0,27.844,34.219Z" transform="translate(21.938 21.094)" fill="#252525"/>
        <path id="Path_116079" data-name="Path 116079" d="M34.623,31.521a6.387,6.387,0,0,1-4.248,1.324,6.4,6.4,0,0,1-4.246-1.322,1.844,1.844,0,0,0-2.589,2.626,9.792,9.792,0,0,0,6.835,2.384,9.792,9.792,0,0,0,6.835-2.384,1.828,1.828,0,0,0,.009-2.574,1.856,1.856,0,0,0-2.6-.053Z" transform="translate(19.406 26.156)" fill="#252525"/>
        <path id="Path_116080" data-name="Path 116080" d="M114.313,74.089v-11.4a5.538,5.538,0,0,0-5.531-5.531,5.559,5.559,0,0,0-5.531,5.531V73.75H99.563V68.219a1.844,1.844,0,0,0-1.844-1.844H90.344A1.844,1.844,0,0,0,88.5,68.219v5.87a5.524,5.524,0,0,0-3.687,5.192v2.972L77.438,79.8V74.045a34.157,34.157,0,0,1,1.75-10.777A37.884,37.884,0,0,0,81.125,51.33V33.187a14.513,14.513,0,0,0-3.687-7.093V20.281A20.305,20.305,0,0,0,57.156,0H42.406A20.289,20.289,0,0,0,22.125,20.281v5.813a18.317,18.317,0,0,0-3.687,7.093V51.33a37.875,37.875,0,0,0,1.938,11.938,34.157,34.157,0,0,1,1.75,10.777v4.722l-2.426.608C7,83.609,0,91.433,0,101.406v14.75A1.844,1.844,0,0,0,1.844,118H108.781a5.538,5.538,0,0,0,5.531-5.531v-11.4A5.524,5.524,0,0,0,118,95.875V79.281A5.524,5.524,0,0,0,114.313,74.089Zm-7.375-11.4a1.8,1.8,0,0,1,.564-1.313,1.768,1.768,0,0,1,1.28-.531,1.847,1.847,0,0,1,1.844,1.844V73.75h-3.687ZM95.875,70.063V73.75H92.188V70.063Zm-7.375,31v11.4a5.469,5.469,0,0,0,.339,1.844H78.345c4.537-5.144,4.624-12.514,4.624-12.906a1.842,1.842,0,0,0-1.35-1.776c-5.592-1.554-7.063-4.419-7.108-4.512a1.845,1.845,0,0,0-1.656-1.073,1.989,1.989,0,0,0-1.694,1.042c-.059.122-1.53,2.987-7.122,4.541a1.842,1.842,0,0,0-1.35,1.776c0,.393.087,7.762,4.624,12.906H58.548l-3.072-10.749,3.074-4.609,12.714-10.9a1.844,1.844,0,0,0,.382-2.349L68.68,80.76l16.136,5.378v9.733a5.524,5.524,0,0,0,3.688,5.192Zm-22.031,1.667a16.229,16.229,0,0,0,6.359-3.811,16.23,16.23,0,0,0,6.365,3.813c-.282,2.675-1.46,8.68-6.365,11.367C67.951,111.425,66.758,105.411,66.469,102.734Zm-18.841-.505-2.849-4.274,5-5,5,5-2.849,4.274a1.84,1.84,0,0,0-.238,1.53l3.016,10.555H44.851l3.016-10.555a1.849,1.849,0,0,0-.238-1.53ZM27.656,49.051a8.964,8.964,0,0,1-5.531-8.487V35.033h5.531ZM38.719,22.127H60.844A18.835,18.835,0,0,1,74.237,28a14.991,14.991,0,0,1,2.349,3.343H22.975a15.053,15.053,0,0,1,2.342-3.335A17.59,17.59,0,0,1,28.379,25.4a18.642,18.642,0,0,1,10.34-3.276Zm2.03-3.687a9.219,9.219,0,0,1,18.065,0ZM77.438,40.564a9,9,0,0,1-5.531,8.47v-14h5.531ZM31.344,35.033H68.219V51.627A18.438,18.438,0,0,1,49.781,70.064a18.644,18.644,0,0,1-13.41-5.784,18.356,18.356,0,0,1-5.028-12.654ZM57.252,95.209l-4.773-4.773L64.085,80.281l3.6,5.992L57.252,95.211ZM36.875,69.589a22.1,22.1,0,0,0,12.906,4.163A21.87,21.87,0,0,0,62.688,69.6v7L49.781,87.9,36.875,76.6Zm-1.4,10.69L47.084,90.434,42.31,95.208,31.882,86.269l3.6-5.992ZM77.438,51.33a34.157,34.157,0,0,1-1.75,10.777A37.884,37.884,0,0,0,73.75,74.045v4.521l-7.375-2.458V66.224A21.992,21.992,0,0,0,71.84,53.048a14.727,14.727,0,0,0,5.6-3.426ZM30.674,8.549A16.481,16.481,0,0,1,42.406,3.688h14.75A16.614,16.614,0,0,1,73.75,20.281v2.426a22.9,22.9,0,0,0-11.2-4.174,12.89,12.89,0,0,0-25.543-.02c-5.487,0-11.027,4.091-11.2,4.215V20.281A16.492,16.492,0,0,1,30.674,8.549Zm-6.8,53.557a34.157,34.157,0,0,1-1.75-10.777V49.623a14.741,14.741,0,0,0,5.6,3.426,21.921,21.921,0,0,0,5.465,13.179V76l-7.375,1.847v-3.8a37.875,37.875,0,0,0-1.938-11.938Zm-20.187,39.3c0-11.142,10.762-16.395,17.042-18.493l10.432-2.607-3.241,5.4a1.843,1.843,0,0,0,.382,2.349l12.715,10.9,3.074,4.609-3.072,10.749H36.877v-5.531a1.844,1.844,0,0,0-1.844-1.844H22.127a1.844,1.844,0,0,0-1.844,1.844v5.531H14.8c.23-6.8,1.635-10.3,1.646-10.334a1.843,1.843,0,1,0-3.387-1.455c-.076.175-1.7,4.148-1.945,11.791H3.687V101.41Zm29.5,12.906H23.969v-3.687h9.219Zm75.594,0H94.031a1.847,1.847,0,0,1-1.844-1.844V101.406h18.438v11.063A1.847,1.847,0,0,1,108.781,114.313Zm5.531-18.438a1.847,1.847,0,0,1-1.844,1.844H90.344A1.847,1.847,0,0,1,88.5,95.875V79.281a1.847,1.847,0,0,1,1.844-1.844h22.125a1.847,1.847,0,0,1,1.844,1.844Z" transform="translate(0 0)" fill="#252525"/>
        <path id="Path_116081" data-name="Path 116081" d="M66.594,44H51.844A1.844,1.844,0,0,0,50,45.844v9.219a1.844,1.844,0,0,0,1.844,1.844h14.75a1.844,1.844,0,0,0,1.844-1.844V45.844A1.844,1.844,0,0,0,66.594,44ZM64.75,53.219H53.688V47.688H64.75Z" transform="translate(42.188 37.125)" fill="#252525"/>
        <path id="Path_116082" data-name="Path 116082" d="M22.841,24.766A2.767,2.767,0,1,0,25.608,22c-1.154,0-1.538.424-2.495.424-.861,0-1.167-.542-1.731-.382-.332.094-.45.553-.343,1.01a2.558,2.558,0,0,0,1.8,1.715Z" transform="translate(17.72 18.563)" fill="#252525"/>
        <path id="Path_116083" data-name="Path 116083" d="M31.767,27.532a2.767,2.767,0,0,0,2.767-2.766,2.554,2.554,0,0,0,1.8-1.715c.107-.457-.011-.916-.343-1.01-.564-.159-.872.382-1.731.382-.957,0-1.342-.424-2.495-.424a2.766,2.766,0,1,0,0,5.531Z" transform="translate(24.47 18.562)" fill="#252525"/>
        <circle id="Ellipse_17" data-name="Ellipse 17" cx="2" cy="2" r="2" transform="translate(96 107)" fill="#252525"/>
        <circle id="Ellipse_18" data-name="Ellipse 18" cx="2" cy="2" r="2" transform="translate(103 107)" fill="#252525"/>
      </g>
    </g>
  </g>
</svg>
