<svg xmlns="http://www.w3.org/2000/svg" width="132.722" height="124" viewBox="0 0 132.722 124">
  <g id="Group_403" data-name="Group 403" transform="translate(-607.592 -5197)">
    <circle id="Ellipse_14" data-name="Ellipse 14" cx="60" cy="60" r="60" transform="translate(614 5201)" fill="#f5f5f5"/>
    <g id="parking" transform="translate(607.592 5157.03)">
      <path id="Path_116101" data-name="Path 116101" d="M0,0H6.084V74.806H0Z" transform="translate(107.367 75.271)" fill="#2f3093"/>
      <rect id="Rectangle_44914" data-name="Rectangle 44914" width="3.042" height="74.806" transform="translate(110.408 75.271)" fill="#2f3093"/>
      <g id="Group_348" data-name="Group 348" transform="translate(88.324 41.86)">
        <path id="Path_116084" data-name="Path 116084" d="M380.376,89.738H343.553a2.826,2.826,0,0,1-2.826-2.826V50.088a2.826,2.826,0,0,1,2.826-2.826h36.823a2.826,2.826,0,0,1,2.826,2.826V86.911A2.826,2.826,0,0,1,380.376,89.738Z" transform="translate(-340.727 -47.262)" fill="#2f3093"/>
        <path id="Path_116085" data-name="Path 116085" d="M380.377,47.263H343.554a2.826,2.826,0,0,0-2.826,2.826V86.912a2.826,2.826,0,0,0,2.826,2.826h36.823a2.826,2.826,0,0,0,2.826-2.826V50.089A2.826,2.826,0,0,0,380.377,47.263Z" transform="translate(-340.728 -47.263)" fill="#2f3093"/>
      </g>
      <path id="Path_116086" data-name="Path 116086" d="M380.408,47.263h-8.277c.006.074.011.147.011.223V84.309a2.826,2.826,0,0,1-2.826,2.826H340.77a2.808,2.808,0,0,0,.209.86h0a2.812,2.812,0,0,0,.336.592l.023.03q.063.084.132.162l.029.033c.053.059.108.116.166.17l0,0q.091.084.189.161l.031.023q.079.06.163.114l.058.037q.075.046.153.088l.06.032q.1.049.2.091l.02.009c.074.03.151.056.228.079l.066.018c.057.016.114.03.171.042l.082.016q.085.015.172.025l.077.009c.083.007.166.012.251.012h36.823a2.826,2.826,0,0,0,2.826-2.826V50.089A2.826,2.826,0,0,0,380.408,47.263Z" transform="translate(-252.435 -5.402)" fill="#2f3093"/>
      <path id="Path_116087" data-name="Path 116087" d="M396.886,82.851a1.421,1.421,0,0,1,1.579-1.289h6.478c4.093,0,7.317,1.966,7.317,7.252v.193c0,5.286-3.32,7.317-7.574,7.317h-3.61V103.8c0,.87-1.064,1.322-2.1,1.322-1.064,0-2.1-.451-2.1-1.322V82.851Zm4.19,2.385v7.8h3.61c2.1,0,3.384-1.193,3.384-3.707v-.387c0-2.514-1.289-3.707-3.384-3.707h-3.61Z" transform="translate(-294.005 -30.81)" fill="#fff"/>
      <path id="Path_116088" data-name="Path 116088" d="M7.294,265.9v18.312a3.642,3.642,0,0,0,2.163,3.328l8.4,3.733a5.578,5.578,0,0,0,2.266.481H131.114a5.121,5.121,0,0,0,5.12-5.12v-9.807a9.475,9.475,0,0,0-1.359-4.89l-.6-.991a13.638,13.638,0,0,0-9.021-6.337L108,261.179a27.837,27.837,0,0,1-9.768-4.579l-12.506-8.448a26.78,26.78,0,0,0-14.991-4.589H47.782a26.779,26.779,0,0,0-18.9,7.808h0a26.778,26.778,0,0,1-13.411,7.239l-2.715.568A6.87,6.87,0,0,0,7.294,265.9Z" transform="translate(-5.403 -150.817)" fill="#ed1c23"/>
      <path id="Path_116089" data-name="Path 116089" d="M141.358,329.214l-.6-.991a13.637,13.637,0,0,0-9.021-6.337l-5.056-1.006a13.63,13.63,0,0,1,2.649,3.176l.6.991a9.475,9.475,0,0,1,1.359,4.89v9.807a5.12,5.12,0,0,1-5.12,5.12H16.046l8.293,3.686a5.578,5.578,0,0,0,2.266.481H137.6a5.12,5.12,0,0,0,5.12-5.12V334.1A9.475,9.475,0,0,0,141.358,329.214Z" transform="translate(-11.887 -208.092)" fill="#ed1c23"/>
      <path id="Path_116090" data-name="Path 116090" d="M69.283,283.485a3.027,3.027,0,0,1,1.633-2.686,32.54,32.54,0,0,0,7.977-5.835A20.849,20.849,0,0,1,93.7,268.846h22.954a20.981,20.981,0,0,1,11.745,3.6l12.506,8.449q1.243.839,2.546,1.556a3.59,3.59,0,0,1,1.877,3.141h0a.928.928,0,0,1-.928.928H72.313a3.029,3.029,0,0,1-3.03-3.029Z" transform="translate(-51.323 -169.546)" fill="#01adef"/>
      <g id="Group_349" data-name="Group 349" transform="translate(12.476 128.774)">
        <circle id="Ellipse_19" data-name="Ellipse 19" cx="10.651" cy="10.651" r="10.651" transform="translate(86.927 0)" fill="#2f3093"/>
        <circle id="Ellipse_20" data-name="Ellipse 20" cx="10.651" cy="10.651" r="10.651" transform="translate(0 0)" fill="#2f3093"/>
      </g>
      <path id="Path_116091" data-name="Path 116091" d="M75.23,409.65a10.653,10.653,0,0,0,0-15.065L60.165,409.65A10.652,10.652,0,0,0,75.23,409.65Z" transform="translate(-44.569 -262.691)" fill="#2f3093"/>
      <circle id="Ellipse_21" data-name="Ellipse 21" cx="3.849" cy="3.849" r="3.849" transform="translate(19.278 135.576)" fill="#e1effb"/>
      <path id="Path_116092" data-name="Path 116092" d="M410.571,409.65a10.653,10.653,0,0,0,0-15.065L395.506,409.65A10.652,10.652,0,0,0,410.571,409.65Z" transform="translate(-292.982 -262.691)" fill="#2f3093"/>
      <circle id="Ellipse_22" data-name="Ellipse 22" cx="3.849" cy="3.849" r="3.849" transform="translate(106.206 135.576)" fill="#e1effb"/>
      <path id="Path_116093" data-name="Path 116093" d="M117.426,88.716a28.614,28.614,0,0,1,40.465,0,1.891,1.891,0,1,0,2.674-2.674,32.395,32.395,0,0,0-45.813,0,1.891,1.891,0,0,0,2.674,2.674Z" transform="translate(-84.596 -27.101)" fill="#f5811f"/>
      <path id="Path_116094" data-name="Path 116094" d="M173.719,128.622a1.891,1.891,0,0,0,1.337-3.228,21.388,21.388,0,0,0-30.213,0,1.891,1.891,0,0,0,2.674,2.674,17.6,17.6,0,0,1,24.865,0A1.884,1.884,0,0,0,173.719,128.622Z" transform="translate(-106.886 -58.653)" fill="#f5811f"/>
      <path id="Path_116095" data-name="Path 116095" d="M174.457,164.082a1.891,1.891,0,1,0,2.674,2.674,6.734,6.734,0,0,1,9.512,0,1.891,1.891,0,1,0,2.674-2.674A10.519,10.519,0,0,0,174.457,164.082Z" transform="translate(-128.824 -89.663)" fill="#f5811f"/>
      <path id="Path_116096" data-name="Path 116096" d="M138.959,275.386c-.818-.45-1.625-.943-2.4-1.466l-12.506-8.449a22.789,22.789,0,0,0-12.8-3.919H88.3a22.728,22.728,0,0,0-16.143,6.669,30.641,30.641,0,0,1-7.514,5.5A4.919,4.919,0,0,0,66.907,283h7.826a1.891,1.891,0,0,0,0-3.782H66.907a1.137,1.137,0,0,1-.525-2.147,34.418,34.418,0,0,0,8.44-6.174A18.97,18.97,0,0,1,88.3,265.333h5.139v13.887H87.154a1.891,1.891,0,0,0,0,3.782H139a2.822,2.822,0,0,0,2.819-2.819A5.485,5.485,0,0,0,138.959,275.386Zm-41.742,3.835V265.334h14.034a19.022,19.022,0,0,1,10.687,3.271l12.506,8.449c.868.587,1.774,1.14,2.694,1.646a1.761,1.761,0,0,1,.587.522Z" transform="translate(-45.919 -164.143)"/>
      <path id="Path_116097" data-name="Path 116097" d="M193.873,355.388h-5.84a1.891,1.891,0,0,0,0,3.782h5.84a1.891,1.891,0,0,0,0-3.782Z" transform="translate(-137.89 -233.655)"/>
      <path id="Path_116098" data-name="Path 116098" d="M131.091,120.146l-.6-.991a15.562,15.562,0,0,0-10.272-7.216l-4.881-.971V86.226h12.632a4.722,4.722,0,0,0,4.717-4.717V44.687a4.722,4.722,0,0,0-4.717-4.717H91.15a4.722,4.722,0,0,0-4.717,4.717V58.655a1.891,1.891,0,0,0,3.782,0V44.687a.937.937,0,0,1,.936-.936h36.823a.937.937,0,0,1,.936.936V81.51a.937.937,0,0,1-.936.936H91.15a.937.937,0,0,1-.936-.936V70.947a1.891,1.891,0,0,0-3.782,0V81.51a4.722,4.722,0,0,0,4.717,4.717h14.325v22.78l-2.509-.5c-3.463-.689-6.84-2.779-9.078-4.291L81.381,95.768a28.568,28.568,0,0,0-16.049-4.913H42.378a28.488,28.488,0,0,0-20.235,8.359,24.829,24.829,0,0,1-12.464,6.728l-2.715.568A8.8,8.8,0,0,0,0,115.086V133.4a5.538,5.538,0,0,0,3.286,5.056l7.531,3.347A12.536,12.536,0,0,0,35.2,142.83H97.989a12.535,12.535,0,0,0,24.135,0h3.587a7.019,7.019,0,0,0,7.011-7.011v-9.807A11.373,11.373,0,0,0,131.091,120.146Zm-21.834-33.92h2.3v23.99l-2.3-.458Zm-79.932,59.4a8.761,8.761,0,0,1-14.166-9.834l.035-.078c.045-.1.092-.191.141-.285.023-.045.046-.089.069-.133.044-.082.089-.163.136-.244q.048-.084.1-.166c.043-.071.087-.142.133-.213s.084-.126.127-.189.085-.124.129-.185.1-.138.156-.207c.041-.053.081-.107.124-.16.062-.077.127-.152.192-.227.037-.043.073-.087.11-.129q.145-.161.3-.315l.026-.027.06-.057c.087-.085.174-.169.263-.25.023-.021.047-.04.071-.061.089-.079.178-.157.269-.231l.026-.02a8.778,8.778,0,0,1,11.028.01l.011.009c.1.08.193.163.289.248l.052.045q.165.149.324.307c.114.114.224.231.331.35.047.052.091.106.137.159s.111.13.165.2.118.15.175.226c.032.042.064.085.1.128q.1.143.2.29l.033.05A8.776,8.776,0,0,1,29.324,145.622Zm86.928,0a8.762,8.762,0,0,1-13.528-10.993l.032-.049q.1-.147.2-.291c.031-.043.062-.085.094-.126.057-.076.115-.152.176-.227s.108-.13.163-.194.091-.108.138-.161c.107-.119.217-.236.331-.35a8.762,8.762,0,0,1,12.391,0c.114.114.224.231.331.35.047.052.091.106.137.16s.111.129.164.2.118.15.175.226c.032.042.064.085.095.127.069.1.137.192.2.29l.033.05A8.777,8.777,0,0,1,116.252,145.622Zm12.688-9.8a3.233,3.233,0,0,1-3.23,3.23H122.6a12.386,12.386,0,0,0-2.784-7.5l-.035-.044c-.108-.131-.22-.26-.333-.388-.029-.033-.057-.066-.086-.1-.12-.132-.245-.262-.371-.39-.022-.022-.041-.045-.063-.066a12.467,12.467,0,0,0-5.805-3.3,12.731,12.731,0,0,0-5.531-.134,12.456,12.456,0,0,0-6.4,3.433c-.021.021-.041.044-.062.065-.127.129-.252.259-.373.392-.029.031-.055.064-.083.1-.115.129-.228.259-.336.392l-.032.04a12.388,12.388,0,0,0-2.787,7.507H35.67a12.388,12.388,0,0,0-2.793-7.515l-.024-.03c-.114-.139-.233-.276-.353-.411-.022-.025-.043-.051-.066-.075q-.212-.234-.437-.459a12.557,12.557,0,0,0-17.739,0c-.14.14-.275.283-.407.428-.039.043-.077.087-.115.13q-.14.158-.275.32c-.04.048-.079.1-.118.145q-.139.173-.271.35c-.027.037-.056.073-.082.11q-.355.486-.66,1l-.017.029q-.149.253-.285.513l-.008.015a12.464,12.464,0,0,0-1.306,4.018L4.822,135a1.753,1.753,0,0,1-1.04-1.6V115.086a5,5,0,0,1,3.959-4.874l2.715-.568a28.6,28.6,0,0,0,14.357-7.75,24.73,24.73,0,0,1,17.566-7.257H65.333A24.8,24.8,0,0,1,79.265,98.9l12.506,8.448c2.51,1.7,6.324,4.045,10.457,4.867l17.256,3.432a11.773,11.773,0,0,1,7.77,5.459l.6.991h0a7.583,7.583,0,0,1,1.088,3.914v9.807h0Z"/>
      <path id="Path_116099" data-name="Path 116099" d="M72.82,401.5a5.7,5.7,0,0,0-4.059,1.681h0A5.74,5.74,0,1,0,72.82,401.5Zm1.385,7.125a1.959,1.959,0,1,1-2.77-2.77h0a1.959,1.959,0,0,1,2.77,2.77Z" transform="translate(-49.691 -267.814)"/>
      <path id="Path_116100" data-name="Path 116100" d="M408.168,401.5a5.74,5.74,0,1,0,4.059,1.682A5.7,5.7,0,0,0,408.168,401.5Zm1.385,7.125a1.958,1.958,0,1,1,.574-1.385A1.946,1.946,0,0,1,409.553,408.625Z" transform="translate(-298.112 -267.814)"/>
    </g>
  </g>
</svg>
