<svg xmlns="http://www.w3.org/2000/svg" width="120" height="120" viewBox="0 0 120 120">
  <g id="Group_401" data-name="Group 401" transform="translate(-1549.589 -5201)">
    <circle id="Ellipse_16" data-name="Ellipse 16" cx="60" cy="60" r="60" transform="translate(1549.589 5201)" fill="#f5f5f5"/>
    <g id="policeman-2" transform="translate(1555 5199.97)">
      <g id="Group_396" data-name="Group 396" transform="translate(2.743 2.72)">
        <g id="Group_354" data-name="Group 354" transform="translate(69.712 87.139)">
          <path id="Path_116112" data-name="Path 116112" d="M66.4,52V62.457H42V58.971l7.355-4.9a6.683,6.683,0,0,0,2-2.074H66.4Z" transform="translate(-42 -52)" fill="#4fc1e9"/>
        </g>
        <g id="Group_355" data-name="Group 355" transform="translate(79.07 76.683)">
          <path id="Path_116113" data-name="Path 116113" d="M62.41,54.714v1.743H47.37a6.82,6.82,0,0,0,1.1-3.73V46H62.41Z" transform="translate(-47.37 -46)" fill="#4fc1e9"/>
        </g>
        <g id="Group_356" data-name="Group 356" transform="translate(10.457 87.139)">
          <path id="Path_116114" data-name="Path 116114" d="M32.4,58.971v3.486H8V52H23.04a6.683,6.683,0,0,0,2,2.074Z" transform="translate(-8 -52)" fill="#4fc1e9"/>
        </g>
        <g id="Group_357" data-name="Group 357" transform="translate(10.457 76.683)">
          <path id="Path_116115" data-name="Path 116115" d="M21.942,52.727a6.82,6.82,0,0,0,1.1,3.73H8V46H21.942Z" transform="translate(-8 -46)" fill="#4fc1e9"/>
        </g>
        <g id="Group_358" data-name="Group 358" transform="translate(17.428 51.151)">
          <path id="Path_116116" data-name="Path 116116" d="M18.971,39.419v7.006H17.228A5.221,5.221,0,0,1,12,41.2V31.943l1.168-.261a6.435,6.435,0,0,0,.976-.331l.192.261a9.723,9.723,0,0,0,5.507,4.008A8.745,8.745,0,0,0,18.971,39.419Z" transform="translate(-12 -31.35)" fill="#4fc1e9"/>
        </g>
        <g id="Group_359" data-name="Group 359" transform="translate(10.457 51.743)">
          <path id="Path_116117" data-name="Path 116117" d="M21.942,46.173V56.629H8V33.311l6.971-1.621v9.254A5.221,5.221,0,0,0,20.2,46.173Z" transform="translate(-8 -31.69)" fill="#2f3093"/>
        </g>
        <g id="Group_360" data-name="Group 360" transform="translate(0 53.364)">
          <path id="Path_116118" data-name="Path 116118" d="M12.457,66.4V76.852L5.1,71.955a6.976,6.976,0,0,1-3.1-5.8V41.961a8.707,8.707,0,0,1,6.762-8.487l3.695-.854V66.4Z" transform="translate(-2 -32.62)" fill="#2f3093"/>
        </g>
        <g id="Group_361" data-name="Group 361" transform="translate(10.457 97.596)">
          <path id="Path_116119" data-name="Path 116119" d="M8,58H32.4v6.971H8Z" transform="translate(-8 -58)" fill="#2f3093"/>
        </g>
        <g id="Group_362" data-name="Group 362" transform="translate(69.712 97.596)">
          <path id="Path_116120" data-name="Path 116120" d="M42,58H66.4v6.971H42Z" transform="translate(-42 -58)" fill="#2f3093"/>
        </g>
        <g id="Group_363" data-name="Group 363" transform="translate(94.111 53.364)">
          <path id="Path_116121" data-name="Path 116121" d="M66.457,41.961v24.19a6.976,6.976,0,0,1-3.1,5.8L56,76.852V32.62l3.695.854a8.707,8.707,0,0,1,6.762,8.487Z" transform="translate(-56 -32.62)" fill="#2f3093"/>
        </g>
        <g id="Group_364" data-name="Group 364" transform="translate(80.168 51.743)">
          <path id="Path_116122" data-name="Path 116122" d="M61.942,33.311V56.629H48V46.173h1.743a5.221,5.221,0,0,0,5.228-5.228V31.69Z" transform="translate(-48 -31.69)" fill="#2f3093"/>
        </g>
        <g id="Group_365" data-name="Group 365" transform="translate(79.297 51.151)">
          <path id="Path_116123" data-name="Path 116123" d="M55.343,31.943V41.2a5.221,5.221,0,0,1-5.228,5.228H48.371V39.419a8.745,8.745,0,0,0-.871-3.8,9.723,9.723,0,0,0,5.507-4.008l.192-.261a6.434,6.434,0,0,0,.976.331Z" transform="translate(-47.5 -31.35)" fill="#4fc1e9"/>
        </g>
        <g id="Group_366" data-name="Group 366" transform="translate(52.284 76.683)">
          <path id="Path_116124" data-name="Path 116124" d="M32,46h6.971V63.428H32Z" transform="translate(-32 -46)" fill="#4fc1e9"/>
        </g>
        <g id="Group_367" data-name="Group 367" transform="translate(59.255 76.683)">
          <path id="Path_116125" data-name="Path 116125" d="M46.457,51.228v12.2H36V46H46.457Z" transform="translate(-36 -46)" fill="#4fc1e9"/>
        </g>
        <g id="Group_368" data-name="Group 368" transform="translate(34.856 76.683)">
          <path id="Path_116126" data-name="Path 116126" d="M32.457,46V63.428H22V46Z" transform="translate(-22 -46)" fill="#4fc1e9"/>
        </g>
        <g id="Group_369" data-name="Group 369" transform="translate(45.312 76.683)">
          <path id="Path_116127" data-name="Path 116127" d="M28,46h6.971V63.428H28Z" transform="translate(-28 -46)" fill="#4fc1e9"/>
        </g>
        <g id="Group_370" data-name="Group 370" transform="translate(34.856 94.111)">
          <path id="Path_116128" data-name="Path 116128" d="M56.856,56V66.457H22V56H56.856Z" transform="translate(-22 -56)" fill="#2f3093"/>
        </g>
        <g id="Group_371" data-name="Group 371" transform="translate(69.712 50.68)">
          <path id="Path_116129" data-name="Path 116129" d="M42,62.311V46.626a3.5,3.5,0,0,0,3.486-3.486V31.08l.209.052a8.7,8.7,0,0,1,6.762,8.487V63.81a6.82,6.82,0,0,1-1.1,3.73,6.683,6.683,0,0,1-2,2.074L42,74.51Z" transform="translate(-42 -31.08)" fill="#2f3093"/>
        </g>
        <g id="Group_372" data-name="Group 372" transform="translate(52.284 62.444)">
          <path id="Path_116130" data-name="Path 116130" d="M35.486,41.612V38.126h1.743a5.228,5.228,0,0,0,1.743-.3v.3a3.5,3.5,0,0,0,3.486,3.486h6.971V52.069H32V45.1a3.511,3.511,0,0,0,3.486-3.486Z" transform="translate(-32 -37.83)" fill="#2f3093"/>
        </g>
        <g id="Group_373" data-name="Group 373" transform="translate(34.856 48.258)">
          <path id="Path_116131" data-name="Path 116131" d="M39.428,51.144v6.971H22v-26.8l6.971-1.621v9.254A5.221,5.221,0,0,0,34.2,44.173h1.743v3.486A3.5,3.5,0,0,0,39.428,51.144Z" transform="translate(-22 -29.69)" fill="#2f3093"/>
        </g>
        <g id="Group_374" data-name="Group 374" transform="translate(24.399 49.879)">
          <path id="Path_116132" data-name="Path 116132" d="M26.457,62.652v12.2l-7.355-4.9a6.683,6.683,0,0,1-2-2.074,6.82,6.82,0,0,1-1.1-3.73V39.961a8.7,8.7,0,0,1,6.762-8.487l3.364-.784.331-.07V62.652Z" transform="translate(-16 -30.62)" fill="#2f3093"/>
        </g>
        <g id="Group_375" data-name="Group 375" transform="translate(41.827 47.665)">
          <path id="Path_116133" data-name="Path 116133" d="M43.428,44.129a5.227,5.227,0,0,1-1.743.3H31.228A5.221,5.221,0,0,1,26,39.2V29.943l1.168-.261a6.435,6.435,0,0,0,.976-.331l.192.261a9.754,9.754,0,0,0,15.093,1.429V44.129Z" transform="translate(-26 -29.35)" fill="#4fc1e9"/>
        </g>
        <g id="Group_376" data-name="Group 376" transform="translate(48.798 62.74)">
          <path id="Path_116134" data-name="Path 116134" d="M36.971,38v3.486a3.511,3.511,0,0,1-3.486,3.486A3.5,3.5,0,0,1,30,41.486V38Z" transform="translate(-30 -38)" fill="#f5811f"/>
        </g>
        <g id="Group_377" data-name="Group 377" transform="translate(59.255 52.284)">
          <path id="Path_116135" data-name="Path 116135" d="M36,38.971V32H49.942V42.457a3.5,3.5,0,0,1-3.486,3.486H39.486A3.5,3.5,0,0,1,36,42.457V38.971Z" transform="translate(-36 -32)" fill="#fea119"/>
        </g>
        <g id="Group_378" data-name="Group 378" transform="translate(59.255 45.312)">
          <path id="Path_116136" data-name="Path 116136" d="M46.457,28a3.5,3.5,0,0,1,3.486,3.486v3.486H36V31.486A3.485,3.485,0,0,1,39.486,28Z" transform="translate(-36 -28)" fill="#fea119"/>
        </g>
        <g id="Group_379" data-name="Group 379" transform="translate(10.457 3.486)">
          <path id="Path_116137" data-name="Path 116137" d="M35.885,21.428H13.228a1.748,1.748,0,0,0-1.743,1.743v1.743L10.7,24.53a4.915,4.915,0,0,1-1.063-8.052L22.378,5.15a4.619,4.619,0,0,1,6.1,0l7.18,6.4-1.621,1.447A4.915,4.915,0,0,0,35.1,21.044Z" transform="translate(-8 -4)" fill="#ed1c23"/>
        </g>
        <g id="Group_380" data-name="Group 380" transform="translate(66.226 3.486)">
          <path id="Path_116138" data-name="Path 116138" d="M65.183,24.53l-.784.383V23.171a1.748,1.748,0,0,0-1.743-1.743H40l.784-.383a4.915,4.915,0,0,0,1.063-8.052l-1.621-1.447,7.18-6.4a4.619,4.619,0,0,1,6.1,0l12.74,11.328a4.915,4.915,0,0,1-1.063,8.052Z" transform="translate(-40 -4)" fill="#ed1c23"/>
        </g>
        <g id="Group_381" data-name="Group 381" transform="translate(34.856)">
          <path id="Path_116139" data-name="Path 116139" d="M42.913,15.942a3.486,3.486,0,1,0-3.486,3.486h-12.2a1.748,1.748,0,0,0-1.743,1.743v1.743L24.7,22.53a4.915,4.915,0,0,1-1.063-8.052l1.621-1.447L36.378,3.15a4.619,4.619,0,0,1,6.1,0L53.6,13.032l1.621,1.447a4.915,4.915,0,0,1-1.063,8.052l-.784.383V21.171a1.748,1.748,0,0,0-1.743-1.743h-12.2a3.5,3.5,0,0,0,3.486-3.486Z" transform="translate(-22 -2)" fill="#ed1c23"/>
        </g>
        <g id="Group_382" data-name="Group 382" transform="translate(13.942 20.913)">
          <path id="Path_116140" data-name="Path 116140" d="M11.743,14H34.4a3.537,3.537,0,0,0,.505,1.812,4.815,4.815,0,0,0-3.991,4.723,3.642,3.642,0,0,0,.017.436H13.486A3.479,3.479,0,0,1,10,17.486V15.743A1.748,1.748,0,0,1,11.743,14Z" transform="translate(-10 -14)" fill="#ed1c23"/>
        </g>
        <g id="Group_383" data-name="Group 383" transform="translate(65.721 20.913)">
          <path id="Path_116141" data-name="Path 116141" d="M40.215,14H62.872a1.748,1.748,0,0,1,1.743,1.743v1.743a3.479,3.479,0,0,1-3.486,3.486H43.684a3.643,3.643,0,0,0,.017-.436,4.815,4.815,0,0,0-3.991-4.723A3.537,3.537,0,0,0,40.215,14Z" transform="translate(-39.71 -14)" fill="#ed1c23"/>
        </g>
        <g id="Group_384" data-name="Group 384" transform="translate(38.341 17.428)">
          <path id="Path_116142" data-name="Path 116142" d="M51.885,13.743v1.743A3.479,3.479,0,0,1,48.4,18.971H27.486A3.479,3.479,0,0,1,24,15.486V13.743A1.748,1.748,0,0,1,25.743,12h24.4A1.748,1.748,0,0,1,51.885,13.743Z" transform="translate(-24 -12)" fill="#ed1c23"/>
        </g>
        <g id="Group_385" data-name="Group 385" transform="translate(17.428 27.885)">
          <path id="Path_116143" data-name="Path 116143" d="M32.913,22.165v2.806a10.36,10.36,0,0,1-3.067,7.389,10.692,10.692,0,0,1-2.161,1.673,10.5,10.5,0,0,1-10.457,0A10.476,10.476,0,0,1,12.1,26.383a9.62,9.62,0,0,1-.1-1.412V18H29.445a4.768,4.768,0,0,0,3.468,4.165Z" transform="translate(-12 -18)" fill="#f0d0b4"/>
        </g>
        <g id="Group_386" data-name="Group 386" transform="translate(10.457 26.212)">
          <path id="Path_116144" data-name="Path 116144" d="M14.971,25.684a9.62,9.62,0,0,0,.1,1.412h-.017l-3.207-.645a4.787,4.787,0,0,1,.139-9.411,3.538,3.538,0,0,0,2.98,1.673Z" transform="translate(-8 -17.04)" fill="#f0d0b4"/>
        </g>
        <g id="Group_387" data-name="Group 387" transform="translate(19.572 43.918)">
          <path id="Path_116145" data-name="Path 116145" d="M24.82,34.014A8.749,8.749,0,0,0,18.929,38.7a9.723,9.723,0,0,1-5.507-4.008l-.192-.261a5.244,5.244,0,0,0,3.085-4.775V27.2a10.5,10.5,0,0,0,10.457,0v2.457a5.169,5.169,0,0,0,1.412,3.573Z" transform="translate(-13.23 -27.2)" fill="#f0d0b4"/>
        </g>
        <g id="Group_388" data-name="Group 388" transform="translate(43.971 40.433)">
          <path id="Path_116146" data-name="Path 116146" d="M42.514,34.123a9.754,9.754,0,0,1-15.093-1.429l-.192-.261a5.244,5.244,0,0,0,3.085-4.775V25.2a10.5,10.5,0,0,0,10.457,0v2.457a5.273,5.273,0,0,0,2.161,4.252,3.535,3.535,0,0,0-.418,1.656Z" transform="translate(-27.23 -25.2)" fill="#f0d0b4"/>
        </g>
        <g id="Group_389" data-name="Group 389" transform="translate(73.197 43.918)">
          <path id="Path_116147" data-name="Path 116147" d="M55.607,34.694A9.723,9.723,0,0,1,50.1,38.7a8.749,8.749,0,0,0-5.891-4.688L44,33.962V27.984l3.486.61A10.368,10.368,0,0,0,52.714,27.2v2.457A5.244,5.244,0,0,0,55.8,34.433Z" transform="translate(-44 -27.2)" fill="#f0d0b4"/>
        </g>
        <g id="Group_390" data-name="Group 390" transform="translate(87.035 26.212)">
          <path id="Path_116148" data-name="Path 116148" d="M52.045,25.684V18.713a3.538,3.538,0,0,0,2.98-1.673,4.785,4.785,0,0,1,.139,9.411l-3.207.645H51.94a9.62,9.62,0,0,0,.1-1.412Z" transform="translate(-51.94 -17.04)" fill="#f0d0b4"/>
        </g>
        <g id="Group_391" data-name="Group 391" transform="translate(66.226 27.885)">
          <path id="Path_116149" data-name="Path 116149" d="M43.468,18H60.913v6.971a9.62,9.62,0,0,1-.1,1.412,10.476,10.476,0,0,1-5.124,7.651,10.368,10.368,0,0,1-5.228,1.394l-3.486-.61-3.9-2.457A10.36,10.36,0,0,1,40,24.971V22.165A4.768,4.768,0,0,0,43.468,18Z" transform="translate(-40 -18)" fill="#f0d0b4"/>
        </g>
        <g id="Group_392" data-name="Group 392" transform="translate(62.636 22.726)">
          <path id="Path_116150" data-name="Path 116150" d="M41.53,24.364a2.786,2.786,0,0,1-.366.087l-3.207.645H37.94a9.619,9.619,0,0,0,.1-1.412V16.713a3.538,3.538,0,0,0,2.98-1.673,4.815,4.815,0,0,1,3.991,4.723A3.643,3.643,0,0,1,45,20.2a4.768,4.768,0,0,1-3.468,4.165Z" transform="translate(-37.94 -15.04)" fill="#f0d0b4"/>
        </g>
        <g id="Group_393" data-name="Group 393" transform="translate(41.827 24.399)">
          <path id="Path_116151" data-name="Path 116151" d="M46.913,16v6.971a9.619,9.619,0,0,1-.1,1.412,10.3,10.3,0,0,1-2.963,5.978,10.691,10.691,0,0,1-2.161,1.673,10.5,10.5,0,0,1-10.457,0A10.476,10.476,0,0,1,26.1,24.383a9.62,9.62,0,0,1-.1-1.412V16Z" transform="translate(-26 -16)" fill="#f0d0b4"/>
        </g>
        <g id="Group_394" data-name="Group 394" transform="translate(34.856 22.726)">
          <path id="Path_116152" data-name="Path 116152" d="M28.971,23.684a9.62,9.62,0,0,0,.1,1.412h-.017l-3.207-.645a2.786,2.786,0,0,1-.366-.087A4.768,4.768,0,0,1,22.017,20.2,3.643,3.643,0,0,1,22,19.763a4.815,4.815,0,0,1,3.991-4.723,3.538,3.538,0,0,0,2.98,1.673Z" transform="translate(-22 -15.04)" fill="#f0d0b4"/>
        </g>
        <g id="Group_395" data-name="Group 395" transform="translate(48.798 10.457)">
          <circle id="Ellipse_23" data-name="Ellipse 23" cx="3.486" cy="3.486" r="3.486" fill="#f5811f"/>
        </g>
      </g>
      <path id="Path_116153" data-name="Path 116153" d="M100.947,55.232,89.1,52.5a3.47,3.47,0,0,1-2.7-3.4V47.573a12.216,12.216,0,0,0,4.866-7.1l2.083-.417a6.531,6.531,0,0,0,2.034-12.032,6.625,6.625,0,0,0,.988-10.638L83.629,6.063a6.482,6.482,0,0,0-8.405,0l-6.037,5.364L59.23,2.577a6.482,6.482,0,0,0-8.405,0l-9.958,8.85L34.831,6.063a6.482,6.482,0,0,0-8.405,0L13.684,17.386a6.625,6.625,0,0,0,.99,10.636,6.532,6.532,0,0,0,2.034,12.034l2.083.417a12.223,12.223,0,0,0,4.866,7.1V49.1a3.471,3.471,0,0,1-2.7,3.4L9.106,55.234A10.407,10.407,0,0,0,1,65.422V89.616a8.691,8.691,0,0,0,3.881,7.25l6.576,4.383v7.782H98.6v-7.782l6.576-4.385a8.686,8.686,0,0,0,3.881-7.25V65.422A10.41,10.41,0,0,0,100.947,55.232ZM25.636,88.117H14.942V81.146H25.4v4.983A8.671,8.671,0,0,0,25.636,88.117ZM25.4,61.937V67.2a3.489,3.489,0,0,1-3.486-3.486V56.18a11.476,11.476,0,0,0,3.893,2.977A10.475,10.475,0,0,0,25.4,61.937Zm0,8.752V77.66H14.942v-20.2l3.486-.8v7.058A6.978,6.978,0,0,0,25.4,70.689ZM14.942,91.6H27.351A8.733,8.733,0,0,0,29.28,93.38l6.576,4.383v.81H14.942ZM37.6,49.1V47.573a12.188,12.188,0,0,0,5.228-10v-.662l.362.073a12.223,12.223,0,0,0,4.866,7.1v1.528a3.471,3.471,0,0,1-2.7,3.4l-7.348,1.7A3.475,3.475,0,0,1,37.6,49.1ZM36,28.862H20.171a1.745,1.745,0,0,1-1.743-1.743V25.376H37.963A6.49,6.49,0,0,0,36,28.862Zm17.288-12.2a1.743,1.743,0,1,1,1.743,1.743,1.745,1.745,0,0,1-1.743-1.743Zm13.942,5.228v1.743a1.745,1.745,0,0,1-1.743,1.743H44.57a1.745,1.745,0,0,1-1.743-1.743V21.891Zm22.656,6.971H74.058a6.482,6.482,0,0,0-1.969-3.486H91.625v1.743a1.745,1.745,0,0,1-1.743,1.743ZM69.031,27.45a3.041,3.041,0,0,1-.769,5.7l-1.037.206V28.54a5.187,5.187,0,0,0,1.806-1.089Zm-26.2,25.724v7.058A6.978,6.978,0,0,0,49.8,67.2v1.743a5.221,5.221,0,0,0,3.486,4.908V77.66H39.341V53.977Zm3.486-24.312H63.74V34.09a8.714,8.714,0,0,1-17.428,0ZM55.026,46.29a12.184,12.184,0,0,0,3.494-.516,6.985,6.985,0,0,0,1.872,4.589,5.322,5.322,0,0,0-.112.887,7.928,7.928,0,0,1-11.028-.46,6.935,6.935,0,0,0,2.274-5.017,12.16,12.16,0,0,0,3.5.518Zm1.743,31.37V73.854a5.221,5.221,0,0,0,3.486-4.908V67.2c.106,0,.207-.021.314-.026a5.218,5.218,0,0,0,4.915,3.512h5.228V77.66Zm-10.457-24.9a11.466,11.466,0,0,0,13.942,2.717v8.243H49.8a3.489,3.489,0,0,1-3.486-3.486ZM56.769,67.2v1.743a1.743,1.743,0,1,1-3.486,0V67.2Zm15.685,0H65.483a1.745,1.745,0,0,1-1.743-1.743V63.718h6.971V60.232H63.74V56.747H74.2v8.714A1.745,1.745,0,0,1,72.454,67.2ZM74.2,53.261H63.74V51.518a1.745,1.745,0,0,1,1.743-1.743h6.971A1.745,1.745,0,0,1,74.2,51.518ZM39.341,81.146h6.971V95.088H39.341Zm10.457,0h3.486V95.088H49.8Zm6.971,0h3.486V95.088H56.769Zm6.971,0h6.971V95.088H63.74ZM74.2,85.564,78.65,82.6l-1.933-2.9-2.52,1.68V70.368a5.221,5.221,0,0,0,3.486-4.908V55.915a6.922,6.922,0,0,1,3.486,6.021V86.13a5.215,5.215,0,0,1-2.328,4.35l-4.643,3.1ZM65.483,46.29a5.185,5.185,0,0,0-3.046,1A3.471,3.471,0,0,1,62,45.615V44.087a12.216,12.216,0,0,0,4.866-7.1l.362-.071v.662A12.153,12.153,0,0,0,70.9,46.29ZM42.827,33.358l-1.037-.207a3.04,3.04,0,0,1-.769-5.7,5.217,5.217,0,0,0,1.806,1.091ZM35.856,81.376,33.337,79.7,31.4,82.6l4.451,2.968v8.01l-4.643-3.1a5.212,5.212,0,0,1-2.328-4.35V61.937a6.936,6.936,0,0,1,5.4-6.792l1.567-.362Zm3.486,17.2h31.37v6.971H39.341Zm34.856-.81,6.576-4.385A8.65,8.65,0,0,0,82.7,91.6H95.111v6.971H74.2ZM88.139,56.18v7.538A3.489,3.489,0,0,1,84.654,67.2V61.937a10.5,10.5,0,0,0-.408-2.78A11.476,11.476,0,0,0,88.139,56.18ZM84.654,81.146H95.111v6.971H84.417a8.671,8.671,0,0,0,.237-1.989ZM95.111,77.66H84.654V70.689a6.978,6.978,0,0,0,6.971-6.971V56.66l3.486.8Zm-9.9-23.374A8.068,8.068,0,0,1,82.78,56a10.356,10.356,0,0,0-5.1-3.888V49.636a11.693,11.693,0,0,0,5.242-.378,6.925,6.925,0,0,0,2.283,5.028Zm-5.784-8a8.706,8.706,0,0,1-1.743-.176V35.833H74.2V44.5a8.678,8.678,0,0,1-3.486-6.926V35.917a6.559,6.559,0,0,0,3.1-3.569H88.139v5.228a8.724,8.724,0,0,1-8.714,8.714Zm13.236-9.653-1.037.207V32.025a5.2,5.2,0,0,0,1.806-1.091,3.041,3.041,0,0,1-.769,5.7ZM77.54,8.667a2.909,2.909,0,0,1,3.773,0L94.051,19.988a3.167,3.167,0,0,1,1.06,2.361,3.122,3.122,0,0,1-.385,1.469,3.474,3.474,0,0,0-3.1-1.928H73.456A6.614,6.614,0,0,0,71.968,13.9l-.157-.139Zm-24.4-3.486a2.909,2.909,0,0,1,3.773,0L69.652,16.5a3.167,3.167,0,0,1,1.06,2.361,3.122,3.122,0,0,1-.385,1.469,3.474,3.474,0,0,0-3.1-1.928H59.934a5.169,5.169,0,0,0,.321-1.743,5.228,5.228,0,0,0-10.457,0,5.17,5.17,0,0,0,.321,1.743H42.827a3.474,3.474,0,0,0-3.1,1.928,3.122,3.122,0,0,1-.385-1.469A3.165,3.165,0,0,1,40.4,16.5ZM16,19.99,28.742,8.667a2.909,2.909,0,0,1,3.773,0l5.727,5.091-.159.141A6.616,6.616,0,0,0,36.6,21.891H18.428a3.474,3.474,0,0,0-3.1,1.928,3.122,3.122,0,0,1-.385-1.469A3.165,3.165,0,0,1,16,19.99ZM14.942,33.651a3.03,3.03,0,0,1,1.68-2.715,5.217,5.217,0,0,0,1.806,1.091v4.819l-1.037-.207a3.057,3.057,0,0,1-2.449-2.987Zm6.971,3.925V32.348H36.237a6.565,6.565,0,0,0,3.1,3.569v1.659a8.714,8.714,0,1,1-17.428,0Zm8.714,12.2a12.151,12.151,0,0,0,3.5-.518,6.94,6.94,0,0,0,.425,2.246l-1.047.242A10.391,10.391,0,0,0,27.273,56a7.986,7.986,0,0,1-2.429-1.715,6.939,6.939,0,0,0,2.285-5.028,12.16,12.16,0,0,0,3.5.518ZM6.814,93.964a5.212,5.212,0,0,1-2.328-4.35V65.422a6.936,6.936,0,0,1,5.4-6.792l1.567-.362V84.861l-2.518-1.68-1.933,2.9,4.451,2.968v8.01Zm8.128,8.1H35.856v3.486H14.942ZM74.2,105.545v-3.486H95.111v3.486Zm31.37-15.931a5.215,5.215,0,0,1-2.328,4.35l-4.643,3.1v-8.01l4.453-2.968-1.933-2.9L98.6,84.861V58.268l1.567.362a6.936,6.936,0,0,1,5.4,6.792Z" transform="translate(0 0)"/>
    </g>
  </g>
</svg>
