<svg xmlns="http://www.w3.org/2000/svg" width="120" height="130.007" viewBox="0 0 120 130.007">
  <g id="Group_397" data-name="Group 397" transform="translate(-228 -4936.993)">
    <circle id="Ellipse_5" data-name="Ellipse 5" cx="60" cy="60" r="60" transform="translate(228 4947)" fill="#f5f5f5"/>
    <g id="security-guard" transform="translate(213.191 4930.162)">
      <path id="Path_115871" data-name="Path 115871" d="M77.532,70.048H76.509a6.654,6.654,0,0,1,0-13.309l1.009-.01V69.291c0,.252,0,.509.014.757Z" transform="translate(-21.72 -26.148)" fill="#ffb69f"/>
      <path id="Path_115872" data-name="Path 115872" d="M82.174,56.74l1.009-.01v4.122a11.768,11.768,0,0,1-2.523-3.936A6.619,6.619,0,0,1,82.174,56.74Z" transform="translate(-27.385 -26.148)" fill="#ea8f7c"/>
      <path id="Path_115873" data-name="Path 115873" d="M177.692,63.4a6.656,6.656,0,0,1-6.659,6.654H170.01c.01-.252.01-.5.01-.757V56.75h1.014a6.505,6.505,0,0,1,1.5.171,6.656,6.656,0,0,1,5.155,6.483Z" transform="translate(-74.205 -26.158)" fill="#ffb69f"/>
      <path id="Path_115874" data-name="Path 115874" d="M172.548,56.921a11.742,11.742,0,0,1-2.518,3.922V56.75h1.014a6.505,6.505,0,0,1,1.5.171Z" transform="translate(-74.216 -26.158)" fill="#ea8f7c"/>
      <path id="Path_115875" data-name="Path 115875" d="M125.977,48.09V64.764c0,.252,0,.5-.01.757l-.029.557a20.011,20.011,0,0,1-39.936,0l-.029-.557c-.01-.248-.014-.5-.014-.757V48.09a8.526,8.526,0,0,0,8.525,8.525h22.957a8.526,8.526,0,0,0,8.525-8.525Z" transform="translate(-30.162 -21.62)" fill="#ffb69f"/>
      <path id="Path_115876" data-name="Path 115876" d="M125.977,48.09v8.216a11.8,11.8,0,0,1-8.534,3.641H94.485a11.818,11.818,0,0,1-8.525-3.622V48.09a8.526,8.526,0,0,0,8.525,8.525h22.957a8.526,8.526,0,0,0,8.525-8.525Z" transform="translate(-30.162 -21.62)" fill="#ea8f7c"/>
      <path id="Path_115877" data-name="Path 115877" d="M127.019,119.84v8.739L117.3,143.351c-.01.014,0,0,0,0l-9.728-14.767v-8.739A19.946,19.946,0,0,0,127.019,119.84Z" transform="translate(-41.486 -59.218)" fill="#ffb69f"/>
      <path id="Path_115878" data-name="Path 115878" d="M123.337,162.807v27.769H30.9V162.807a19.091,19.091,0,0,1,6.592-14.4v10.757a1.426,1.426,0,0,0,1.428,1.428h13.8a1.426,1.426,0,0,0,1.428-1.428V141.982l3.332-.89.176-.048,0,0h0l5.593-5.764a2.377,2.377,0,0,1,3.694.352c.171.262.314.476.438.666l9.728,14.767h0s-.01.014,0,0l9.721-14.772c.281-.419.438-.662.438-.662a2.381,2.381,0,0,1,3.7-.347l5.588,5.759v0l12.671,3.375a19.045,19.045,0,0,1,14.1,18.387Z" transform="translate(-1.31 -66.928)" fill="#2f3093"/>
      <path id="Path_115879" data-name="Path 115879" d="M61.074,148.29v18.069a4.768,4.768,0,0,1-4.76,4.76H42.51a4.768,4.768,0,0,1-4.76-4.76v-7a19.1,19.1,0,0,1,3.332-3.76v10.757a1.426,1.426,0,0,0,1.428,1.428h13.8a1.426,1.426,0,0,0,1.428-1.428V149.18Z" transform="translate(-4.9 -74.126)" fill="#4ba5c8"/>
      <path id="Path_115880" data-name="Path 115880" d="M127.019,119.84v3.727a23.251,23.251,0,0,1-19.449.01v-3.732A19.946,19.946,0,0,0,127.019,119.84Z" transform="translate(-41.486 -59.218)" fill="#ea8f7c"/>
      <g id="Group_132" data-name="Group 132" transform="translate(36.182 8.021)">
        <path id="Path_115881" data-name="Path 115881" d="M110.09,208.749h17.05l-4.262-26.774h.026l1.823-6.792-6.108-5.948-6.111,5.938,1.875,6.8h-.031Z" transform="translate(-78.989 -93.121)" fill="#ed1c23"/>
        <path id="Path_115882" data-name="Path 115882" d="M125.967,23.61v4.17a8.526,8.526,0,0,1-8.525,8.525H94.485a8.526,8.526,0,0,1-8.525-8.525V23.61A14.279,14.279,0,0,1,100.24,9.33h11.448A14.279,14.279,0,0,1,125.967,23.61Z" transform="translate(-66.344 -9.33)" fill="#ed1c23"/>
        <path id="Path_115883" data-name="Path 115883" d="M61.41,126.543v27.672a1.426,1.426,0,0,1-1.428,1.428h-13.8a1.426,1.426,0,0,1-1.428-1.428V126.543a1.426,1.426,0,0,1,1.428-1.428h13.8A1.426,1.426,0,0,1,61.41,126.543Z" transform="translate(-44.75 -70.002)" fill="#01adef"/>
      </g>
      <path id="Path_115884" data-name="Path 115884" d="M54.146,136.75h7.715v6.545H54.146Z" transform="translate(-13.491 -68.079)" fill="#f5811f"/>
      <path id="Path_115885" data-name="Path 115885" d="M123.214,29.8A4.393,4.393,0,0,1,120,25.573V22.665h6.425v2.908A4.393,4.393,0,0,1,123.214,29.8Z" transform="translate(-48 -8.297)" fill="#efefef"/>
      <g id="Group_133" data-name="Group 133" transform="translate(85.423 93.682)">
        <path id="Path_115886" data-name="Path 115886" d="M165.941,192.013h-1.689a6.031,6.031,0,0,0-10.079,0h-1.691A4.289,4.289,0,0,0,148.2,196.3v18.026a4.289,4.289,0,0,0,4.284,4.284h13.459a4.289,4.289,0,0,0,4.284-4.284V196.3a4.289,4.289,0,0,0-4.284-4.284Z" transform="translate(-148.198 -189.295)" fill="#4ba5c8"/>
        <path id="Path_115887" data-name="Path 115887" d="M170.561,202.957v18.026a.952.952,0,0,1-.952.952H156.15a.952.952,0,0,1-.952-.952V202.957a.952.952,0,0,1,.952-.952h4.018a2.711,2.711,0,0,0,5.423,0h4.018A.952.952,0,0,1,170.561,202.957Z" transform="translate(-151.866 -195.955)" fill="#efefef"/>
        <path id="Path_115888" data-name="Path 115888" d="M171.061,199.006v.006a2.711,2.711,0,0,1-5.422,0v-.006a2.711,2.711,0,1,1,5.422,0Z" transform="translate(-157.337 -192.961)" fill="#f5811f"/>
      </g>
      <g id="Group_134" data-name="Group 134" transform="translate(107.944 81.856)">
        <path id="Path_115889" data-name="Path 115889" d="M204.722,201.925a1.19,1.19,0,0,1-1.19-1.19v-1.556a1.19,1.19,0,0,1,2.38,0v1.556A1.19,1.19,0,0,1,204.722,201.925Zm0-6.316a1.19,1.19,0,0,1-1.19-1.19V178.477a13.182,13.182,0,0,0-7.351-11.768,1.19,1.19,0,1,1,1.045-2.138,15.576,15.576,0,0,1,8.686,13.906v15.941a1.19,1.19,0,0,1-1.19,1.19Z" transform="translate(-195.513 -164.45)" fill="#c5e5fe"/>
      </g>
      <g id="Group_135" data-name="Group 135" transform="translate(63.133 11.59)">
        <path id="Path_115890" data-name="Path 115890" d="M125.517,36.665H108.67a1.19,1.19,0,0,1,0-2.38h16.847a2.578,2.578,0,0,0,2.575-2.575V27.54a8.34,8.34,0,0,0-8.33-8.33,1.19,1.19,0,0,1,0-2.38,10.722,10.722,0,0,1,10.71,10.71v4.17A4.961,4.961,0,0,1,125.517,36.665Zm-21.607,0h-1.35a1.19,1.19,0,0,1,0-2.38h1.35a1.19,1.19,0,0,1,0,2.38Z" transform="translate(-101.37 -16.83)" fill="#efefef"/>
      </g>
      <path id="Path_115891" data-name="Path 115891" d="M50.132,202.406v23.1a1.19,1.19,0,0,0,2.38,0v-23.1a1.19,1.19,0,0,0-2.38,0Z" transform="translate(-11.388 -101.86)"/>
      <path id="Path_115892" data-name="Path 115892" d="M200.382,202.406v23.1a1.19,1.19,0,0,0,2.38,0v-23.1a1.19,1.19,0,0,0-2.38,0Z" transform="translate(-90.12 -101.86)"/>
      <path id="Path_115893" data-name="Path 115893" d="M121.488,102.875a5.917,5.917,0,0,0,5.91-5.91,1.19,1.19,0,0,0-2.38,0,3.53,3.53,0,1,1-7.061,0,1.19,1.19,0,0,0-2.38,0A5.917,5.917,0,0,0,121.488,102.875Z" transform="translate(-45.682 -46.608)"/>
      <path id="Path_115894" data-name="Path 115894" d="M94.542,17.4l0,0a1.191,1.191,0,0,0,.024-1.68,1.22,1.22,0,0,0-1.685-.024l-.005,0a1.19,1.19,0,0,0,1.661,1.7Z" transform="translate(-33.603 -4.472)"/>
      <path id="Path_115895" data-name="Path 115895" d="M107.45,77.179v-.634a1.19,1.19,0,0,0-2.38,0v.634a1.19,1.19,0,1,0,2.38,0Z" transform="translate(-40.176 -35.907)"/>
      <path id="Path_115896" data-name="Path 115896" d="M147.12,78.369a1.19,1.19,0,0,0,1.19-1.19v-.634a1.19,1.19,0,0,0-2.38,0v.634A1.19,1.19,0,0,0,147.12,78.369Z" transform="translate(-61.587 -35.907)"/>
      <path id="Path_115897" data-name="Path 115897" d="M126.69,82.951a1.19,1.19,0,0,0,1.19-1.19V76.544a1.19,1.19,0,1,0-2.38,0v5.217A1.19,1.19,0,0,0,126.69,82.951Z" transform="translate(-50.881 -35.907)"/>
      <path id="Path_115898" data-name="Path 115898" d="M60.811,159.015a1.19,1.19,0,1,0,0-2.38H58.253a1.19,1.19,0,0,0,0,2.38Z" transform="translate(-15.02 -78.499)"/>
      <path id="Path_115899" data-name="Path 115899" d="M60.811,174.5H58.253a1.19,1.19,0,1,0,0,2.38h2.558a1.19,1.19,0,1,0,0-2.38Z" transform="translate(-15.02 -87.86)"/>
      <path id="Path_115900" data-name="Path 115900" d="M60.607,165.567H54a1.19,1.19,0,1,0,0,2.38h6.6a1.19,1.19,0,0,0,0-2.38Z" transform="translate(-12.793 -83.179)"/>
      <path id="Path_115901" data-name="Path 115901" d="M52.836,143.175h7.715a1.19,1.19,0,0,0,1.19-1.19V135.44a1.19,1.19,0,0,0-1.19-1.19H52.836a1.19,1.19,0,0,0-1.19,1.19v6.545a1.19,1.19,0,0,0,1.19,1.19Zm1.19-6.545h5.335v4.165H54.026Z" transform="translate(-12.181 -66.769)"/>
      <path id="Path_115902" data-name="Path 115902" d="M29.59,124.838a1.19,1.19,0,0,0,1.19-1.19V95.879a17.7,17.7,0,0,1,4.213-11.494v7.848a2.621,2.621,0,0,0,2.618,2.618h13.8a2.621,2.621,0,0,0,2.618-2.618V75.97l1.533-.412,5.69,18.126a3.092,3.092,0,0,0,5.106,1.293l2.728-2.649,1.25,4.541-1.133,7.116a1.19,1.19,0,1,0,2.351.376l1-6.3h6.5l4.1,25.77a1.19,1.19,0,0,0,2.352-.371L81.3,97l1.247-4.654,2.712,2.633a3.092,3.092,0,0,0,5.106-1.292l5.689-18.123,4.066,1.083a1.209,1.209,0,0,0,1.452-.847,1.188,1.188,0,0,0-.843-1.457L95.89,73.055l-5.369-5.531a3.561,3.561,0,0,0-3.8-.863V61.3A21.155,21.155,0,0,0,96.909,45.087a7.842,7.842,0,0,0,1.7-15.481,7.67,7.67,0,0,0-1.6-.193c0-1.061-.01-6.051-.01-7.112a15.463,15.463,0,0,0-15.47-15.47H70.078A15.35,15.35,0,0,0,63.5,8.3a1.186,1.186,0,0,0-.571,1.58,1.218,1.218,0,0,0,1.585.571,13.014,13.014,0,0,1,5.564-1.238H81.525A13.141,13.141,0,0,1,94.615,22.3v2.98H56.988V22.3a12.925,12.925,0,0,1,1.39-5.874,1.2,1.2,0,0,0-.528-1.6,1.21,1.21,0,0,0-1.6.528A15.5,15.5,0,0,0,54.608,22.3v7.112a7.838,7.838,0,0,0,.1,15.673A21.131,21.131,0,0,0,64.894,61.3v5.355a3.543,3.543,0,0,0-1.223-.221h-.019A3.562,3.562,0,0,0,61.1,67.519L55.731,73.05l-1.7.453V64.562a2.621,2.621,0,0,0-2.618-2.618h-1.1V53.083a1.19,1.19,0,0,0-2.38,0v8.861H37.61a2.621,2.621,0,0,0-2.618,2.618v16.4A20.139,20.139,0,0,0,28.4,95.879v27.769a1.19,1.19,0,0,0,1.19,1.19ZM97,31.785a5.284,5.284,0,0,1,1.061.138A5.464,5.464,0,0,1,97,42.708V31.785Zm-42.4,10.923a5.465,5.465,0,0,1,0-10.923V42.708ZM79.182,95.684h-6.7l-1.448-5.248,4.77-4.637,4.782,4.649ZM67.274,69.007V62.54a20.838,20.838,0,0,0,17.069-.006v6.473L75.809,81.975Zm19.7.34a1.191,1.191,0,0,1,1.847-.167l5.094,5.252-5.82,18.539a.712.712,0,0,1-1.178.3c-7.437-7.221-.4-.384-9.571-9.3ZM94.506,27.66A7.364,7.364,0,0,1,87.28,33.8H64.323A7.363,7.363,0,0,1,57.1,27.66ZM57,43.854c-.019-.481-.013.156-.013-11.035a9.689,9.689,0,0,0,7.335,3.366H87.28a9.689,9.689,0,0,0,7.345-3.377c0,10.994.006,10.669-.009,11.041A18.82,18.82,0,0,1,57,43.854Zm5.8,25.322a1.187,1.187,0,0,1,1.847.176l9.623,14.617c-8.7,8.454-4.587,4.461-9.571,9.3a.712.712,0,0,1-1.178-.3l-5.82-18.54ZM37.372,64.561a.236.236,0,0,1,.238-.238h13.8a.236.236,0,0,1,.238.238V92.233a.236.236,0,0,1-.238.238H37.61a.236.236,0,0,1-.238-.238Z"/>
      <path id="Path_115903" data-name="Path 115903" d="M197.262,156.2a17.92,17.92,0,0,1,11.652,16.741v27.769a1.19,1.19,0,1,0,2.38,0V172.945a20.229,20.229,0,0,0-13.209-18.973,1.208,1.208,0,0,0-1.528.7A1.188,1.188,0,0,0,197.262,156.2Z" transform="translate(-88.077 -77.067)"/>
      <path id="Path_115904" data-name="Path 115904" d="M186.915,152.038a1.19,1.19,0,1,0,1.457-.842,1.191,1.191,0,0,0-1.457.842Z" transform="translate(-83.042 -75.627)"/>
      <path id="Path_115905" data-name="Path 115905" d="M114.9,220.093a1.191,1.191,0,1,0-2.137.509A1.187,1.187,0,0,0,114.9,220.093Z" transform="translate(-44.085 -111.029)"/>
      <path id="Path_115906" data-name="Path 115906" d="M109.207,229.593l-1.6,10.072a1.19,1.19,0,1,0,2.351.371l1.6-10.072a1.19,1.19,0,1,0-2.351-.371Z" transform="translate(-41.495 -116.203)"/>
      <path id="Path_115907" data-name="Path 115907" d="M122.224,29.641a5.6,5.6,0,0,0,4.083-5.378V21.355a1.19,1.19,0,0,0-1.19-1.19h-6.425a1.19,1.19,0,0,0-1.19,1.19v2.908a5.6,5.6,0,0,0,4.083,5.378A1.191,1.191,0,0,0,122.224,29.641Zm-2.342-5.378V22.545h4.045v1.718a3.215,3.215,0,0,1-2.022,2.978A3.215,3.215,0,0,1,119.882,24.263Z" transform="translate(-46.69 -6.987)"/>
      <path id="Path_115908" data-name="Path 115908" d="M170.44,216.679V198.653a2.145,2.145,0,0,0-2.142-2.142h-3.013a3.9,3.9,0,0,0-7.432,0h-3.014a2.145,2.145,0,0,0-2.142,2.142v18.026a2.145,2.145,0,0,0,2.142,2.142H168.3A2.145,2.145,0,0,0,170.44,216.679Zm-8.874-20.507a1.526,1.526,0,0,1,1.524,1.524h0a1.521,1.521,0,1,1-1.524-1.525Zm6.494,20.269H155.077v-17.55h2.779a3.9,3.9,0,0,0,7.424,0h2.779v17.55Z" transform="translate(-65.133 -97.969)"/>
      <path id="Path_115909" data-name="Path 115909" d="M169.751,217.25h-5.423a1.19,1.19,0,1,0,0,2.38h5.423a1.19,1.19,0,0,0,0-2.38Z" transform="translate(-70.604 -110.262)"/>
      <path id="Path_115910" data-name="Path 115910" d="M169.751,226.839h-5.423a1.19,1.19,0,0,0,0,2.38h5.423a1.19,1.19,0,0,0,0-2.38Z" transform="translate(-70.604 -115.286)"/>
    </g>
  </g>
</svg>
