<svg xmlns="http://www.w3.org/2000/svg" width="120" height="120" viewBox="0 0 120 120">
  <g id="Group_399" data-name="Group 399" transform="translate(-1160.585 -4941)">
    <circle id="Ellipse_7" data-name="Ellipse 7" cx="60" cy="60" r="60" transform="translate(1160.585 4941)" fill="#f5f5f5"/>
    <g id="_x34_5" transform="translate(1166 4939.963)">
      <g id="Group_295" data-name="Group 295" transform="translate(1 1.037)">
        <g id="Group_138" data-name="Group 138" transform="translate(8.679 79.892)">
          <g id="Group_137" data-name="Group 137">
            <g id="Group_136" data-name="Group 136">
              <path id="Path_115921" data-name="Path 115921" d="M4.851,36.49h90.81V58.648H4.851Z" transform="translate(-4.851 -36.49)" fill="#2f3093"/>
            </g>
          </g>
        </g>
        <g id="Group_141" data-name="Group 141" transform="translate(13.744 86.359)">
          <g id="Group_140" data-name="Group 140">
            <g id="Group_139" data-name="Group 139">
              <path id="Path_115922" data-name="Path 115922" d="M20.411,48.585H8.927A1.828,1.828,0,0,1,7.1,46.756V41.188A1.828,1.828,0,0,1,8.927,39.36H20.411a1.828,1.828,0,0,1,1.828,1.828v5.569A1.828,1.828,0,0,1,20.411,48.585Z" transform="translate(-7.099 -39.36)" fill="#f9b938"/>
            </g>
          </g>
        </g>
        <g id="Group_144" data-name="Group 144" transform="translate(79.282 86.359)">
          <g id="Group_143" data-name="Group 143">
            <g id="Group_142" data-name="Group 142">
              <path id="Path_115923" data-name="Path 115923" d="M49.494,48.585H38.01a1.828,1.828,0,0,1-1.828-1.828V41.188A1.828,1.828,0,0,1,38.01,39.36H49.494a1.828,1.828,0,0,1,1.828,1.828v5.569A1.828,1.828,0,0,1,49.494,48.585Z" transform="translate(-36.182 -39.36)" fill="#f9b938"/>
            </g>
          </g>
        </g>
        <g id="Group_147" data-name="Group 147" transform="translate(0 102.051)">
          <g id="Group_146" data-name="Group 146">
            <g id="Group_145" data-name="Group 145">
              <path id="Path_115924" data-name="Path 115924" d="M107.681,52.273H2.484A1.484,1.484,0,0,1,1,50.788V47.807a1.484,1.484,0,0,1,1.484-1.484h105.2a1.484,1.484,0,0,1,1.484,1.484v2.981A1.484,1.484,0,0,1,107.681,52.273Z" transform="translate(-1 -46.323)" fill="#ed1c23"/>
            </g>
          </g>
        </g>
        <g id="Group_150" data-name="Group 150" transform="translate(0.002 102.043)">
          <g id="Group_149" data-name="Group 149">
            <g id="Group_148" data-name="Group 148">
              <path id="Path_115925" data-name="Path 115925" d="M109.166,47.807v.248H3.975A1.481,1.481,0,0,0,2.51,49.542v2.727H2.487A1.472,1.472,0,0,1,1,50.782V47.807A1.486,1.486,0,0,1,2.487,46.32H107.679A1.5,1.5,0,0,1,109.166,47.807Z" transform="translate(-1 -46.32)" fill="#ed1c23"/>
            </g>
          </g>
        </g>
        <g id="Group_153" data-name="Group 153" transform="translate(4.395 15.398)">
          <g id="Group_152" data-name="Group 152" transform="translate(0)">
            <g id="Group_151" data-name="Group 151">
              <path id="Path_115926" data-name="Path 115926" d="M2.95,7.87H102.3V69.547H2.95Z" transform="translate(-2.95 -7.87)" fill="#2f3093"/>
            </g>
          </g>
        </g>
        <g id="Group_156" data-name="Group 156" transform="translate(4.395 15.398)">
          <g id="Group_155" data-name="Group 155" transform="translate(0)">
            <g id="Group_154" data-name="Group 154">
              <path id="Path_115927" data-name="Path 115927" d="M2.95,7.87H102.3v2.253H2.95Z" transform="translate(-2.95 -7.87)" fill="#c2c2ef"/>
            </g>
          </g>
        </g>
        <g id="Group_159" data-name="Group 159" transform="translate(0 11)">
          <g id="Group_158" data-name="Group 158">
            <g id="Group_157" data-name="Group 157">
              <path id="Path_115928" data-name="Path 115928" d="M107.6,5.918H2.565A1.565,1.565,0,0,0,1,7.483v1.26a1.565,1.565,0,0,0,1.565,1.565H107.6a1.565,1.565,0,0,0,1.565-1.565V7.483A1.565,1.565,0,0,0,107.6,5.918Z" transform="translate(-1 -5.918)" fill="#ed1c23"/>
            </g>
          </g>
        </g>
        <g id="Group_162" data-name="Group 162" transform="translate(0 77.078)">
          <g id="Group_161" data-name="Group 161">
            <g id="Group_160" data-name="Group 160">
              <path id="Path_115929" data-name="Path 115929" d="M107.6,35.241H2.565A1.565,1.565,0,0,0,1,36.806v1.26a1.565,1.565,0,0,0,1.565,1.565H107.6a1.565,1.565,0,0,0,1.565-1.565v-1.26A1.565,1.565,0,0,0,107.6,35.241Z" transform="translate(-1 -35.241)" fill="#ed1c23"/>
            </g>
          </g>
        </g>
        <g id="Group_199" data-name="Group 199" transform="translate(5.432 81.468)">
          <g id="Group_165" data-name="Group 165" transform="translate(0.006)">
            <g id="Group_164" data-name="Group 164">
              <g id="Group_163" data-name="Group 163">
                <path id="Path_115930" data-name="Path 115930" d="M3.413,37.189H9.892V57.772H3.413Z" transform="translate(-3.413 -37.189)" fill="#ed1c23"/>
              </g>
            </g>
          </g>
          <g id="Group_168" data-name="Group 168" transform="translate(0 0.002)">
            <g id="Group_167" data-name="Group 167">
              <g id="Group_166" data-name="Group 166">
                <path id="Path_115931" data-name="Path 115931" d="M9.9,37.19V38.7h0a4.935,4.935,0,0,0-4.935,4.935V57.764H3.41V37.19Z" transform="translate(-3.41 -37.19)" fill="#f5811f"/>
              </g>
            </g>
          </g>
          <g id="Group_171" data-name="Group 171" transform="translate(12.641)">
            <g id="Group_170" data-name="Group 170">
              <g id="Group_169" data-name="Group 169">
                <path id="Path_115932" data-name="Path 115932" d="M9.02,37.189H15.5V57.772H9.02Z" transform="translate(-9.02 -37.189)" fill="#ed1c23"/>
              </g>
            </g>
          </g>
          <g id="Group_174" data-name="Group 174" transform="translate(25.279)">
            <g id="Group_173" data-name="Group 173">
              <g id="Group_172" data-name="Group 172">
                <path id="Path_115933" data-name="Path 115933" d="M14.628,37.189h6.479V57.772H14.628Z" transform="translate(-14.628 -37.189)" fill="#ed1c23"/>
              </g>
            </g>
          </g>
          <g id="Group_177" data-name="Group 177" transform="translate(65.543)">
            <g id="Group_176" data-name="Group 176">
              <g id="Group_175" data-name="Group 175">
                <path id="Path_115934" data-name="Path 115934" d="M32.5,37.189h6.479V57.772H32.5Z" transform="translate(-32.496 -37.189)" fill="#ed1c23"/>
              </g>
            </g>
          </g>
          <g id="Group_180" data-name="Group 180" transform="translate(78.181)">
            <g id="Group_179" data-name="Group 179">
              <g id="Group_178" data-name="Group 178">
                <path id="Path_115935" data-name="Path 115935" d="M38.1,37.189h6.479V57.772H38.1Z" transform="translate(-38.104 -37.189)" fill="#ed1c23"/>
              </g>
            </g>
          </g>
          <g id="Group_183" data-name="Group 183" transform="translate(90.816)">
            <g id="Group_182" data-name="Group 182">
              <g id="Group_181" data-name="Group 181">
                <path id="Path_115936" data-name="Path 115936" d="M43.711,37.189H50.19V57.772H43.711Z" transform="translate(-43.711 -37.189)" fill="#ed1c23"/>
              </g>
            </g>
          </g>
          <g id="Group_186" data-name="Group 186" transform="translate(12.636 0.002)">
            <g id="Group_185" data-name="Group 185">
              <g id="Group_184" data-name="Group 184">
                <path id="Path_115937" data-name="Path 115937" d="M15.508,37.19V38.7h0a4.935,4.935,0,0,0-4.935,4.935V57.764H9.018V37.19Z" transform="translate(-9.018 -37.19)" fill="#f5811f"/>
              </g>
            </g>
          </g>
          <g id="Group_189" data-name="Group 189" transform="translate(25.273 0.002)">
            <g id="Group_188" data-name="Group 188">
              <g id="Group_187" data-name="Group 187">
                <path id="Path_115938" data-name="Path 115938" d="M21.116,37.19V38.7h0a4.935,4.935,0,0,0-4.935,4.935V57.764H14.625V37.19Z" transform="translate(-14.625 -37.19)" fill="#f5811f"/>
              </g>
            </g>
          </g>
          <g id="Group_192" data-name="Group 192" transform="translate(65.538 0.002)">
            <g id="Group_191" data-name="Group 191">
              <g id="Group_190" data-name="Group 190">
                <path id="Path_115939" data-name="Path 115939" d="M38.984,37.19V38.7h0a4.935,4.935,0,0,0-4.935,4.935V57.764H32.494V37.19Z" transform="translate(-32.494 -37.19)" fill="#f5811f"/>
              </g>
            </g>
          </g>
          <g id="Group_195" data-name="Group 195" transform="translate(78.174 0.002)">
            <g id="Group_194" data-name="Group 194">
              <g id="Group_193" data-name="Group 193">
                <path id="Path_115940" data-name="Path 115940" d="M44.591,37.19V38.7a4.935,4.935,0,0,0-4.935,4.935V57.764H38.1V37.19Z" transform="translate(-38.101 -37.19)" fill="#f5811f"/>
              </g>
            </g>
          </g>
          <g id="Group_198" data-name="Group 198" transform="translate(90.811 0.002)">
            <g id="Group_197" data-name="Group 197">
              <g id="Group_196" data-name="Group 196">
                <path id="Path_115941" data-name="Path 115941" d="M50.2,37.19V38.7a4.935,4.935,0,0,0-4.935,4.935V57.764H43.709V37.19Z" transform="translate(-43.709 -37.19)" fill="#f5811f"/>
              </g>
            </g>
          </g>
        </g>
        <g id="Group_202" data-name="Group 202" transform="translate(26.411 15.398)">
          <g id="Group_201" data-name="Group 201">
            <g id="Group_200" data-name="Group 200">
              <path id="Path_115942" data-name="Path 115942" d="M12.72,7.87H68.065V69.547H12.72Z" transform="translate(-12.72 -7.87)" fill="#c2c2ef"/>
            </g>
          </g>
        </g>
        <g id="Group_205" data-name="Group 205" transform="translate(28.665 4.357)">
          <g id="Group_204" data-name="Group 204">
            <g id="Group_203" data-name="Group 203">
              <path id="Path_115943" data-name="Path 115943" d="M13.72,2.97H64.558V75.689H13.72Z" transform="translate(-13.72 -2.97)" fill="#2f3093"/>
            </g>
          </g>
        </g>
        <g id="Group_208" data-name="Group 208" transform="translate(28.665 4.357)">
          <g id="Group_207" data-name="Group 207">
            <g id="Group_206" data-name="Group 206">
              <path id="Path_115944" data-name="Path 115944" d="M13.72,2.97H64.558V5.223H13.72Z" transform="translate(-13.72 -2.97)" fill="#c2c2ef"/>
            </g>
          </g>
        </g>
        <g id="Group_211" data-name="Group 211" transform="translate(25.387)">
          <g id="Group_210" data-name="Group 210">
            <g id="Group_209" data-name="Group 209">
              <path id="Path_115945" data-name="Path 115945" d="M68.2,1.037H13.726a1.46,1.46,0,0,0-1.46,1.46V3.942a1.46,1.46,0,0,0,1.46,1.46H68.2a1.46,1.46,0,0,0,1.46-1.46V2.5A1.46,1.46,0,0,0,68.2,1.037Z" transform="translate(-12.266 -1.037)" fill="#ed1c23"/>
            </g>
          </g>
        </g>
        <g id="Group_214" data-name="Group 214" transform="translate(46.135 84.681)">
          <g id="Group_213" data-name="Group 213">
            <g id="Group_212" data-name="Group 212">
              <path id="Path_115946" data-name="Path 115946" d="M37.369,55.978h-15.9V41.187a2.572,2.572,0,0,1,2.572-2.572H34.8a2.572,2.572,0,0,1,2.572,2.572Z" transform="translate(-21.473 -38.615)" fill="#a2a2f9"/>
            </g>
          </g>
        </g>
        <g id="Group_217" data-name="Group 217" transform="translate(46.13 84.692)">
          <g id="Group_216" data-name="Group 216">
            <g id="Group_215" data-name="Group 215">
              <path id="Path_115947" data-name="Path 115947" d="M37.334,40.67H26.5a2.568,2.568,0,0,0-2.569,2.569V55.971H21.47V41.189a2.568,2.568,0,0,1,2.569-2.569H34.811A2.584,2.584,0,0,1,37.334,40.67Z" transform="translate(-21.47 -38.62)" fill="#5e5eef"/>
            </g>
          </g>
        </g>
        <g id="Group_227" data-name="Group 227" transform="translate(33.671 29.337)">
          <g id="Group_220" data-name="Group 220">
            <g id="Group_219" data-name="Group 219">
              <g id="Group_218" data-name="Group 218">
                <path id="Path_115948" data-name="Path 115948" d="M23.65,55.315H18.779a2.837,2.837,0,0,1-2.837-2.837V16.893a2.837,2.837,0,0,1,2.837-2.837H23.65a2.837,2.837,0,0,1,2.837,2.837V52.478A2.837,2.837,0,0,1,23.65,55.315Z" transform="translate(-15.942 -14.055)" fill="#ed1c23"/>
              </g>
            </g>
          </g>
          <g id="Group_223" data-name="Group 223" transform="translate(30.281)">
            <g id="Group_222" data-name="Group 222">
              <g id="Group_221" data-name="Group 221">
                <path id="Path_115949" data-name="Path 115949" d="M37.088,55.315H32.216a2.837,2.837,0,0,1-2.837-2.837V16.893a2.837,2.837,0,0,1,2.837-2.837h4.872a2.837,2.837,0,0,1,2.837,2.837V52.478A2.837,2.837,0,0,1,37.088,55.315Z" transform="translate(-29.379 -14.055)" fill="#ed1c23"/>
              </g>
            </g>
          </g>
          <g id="Group_226" data-name="Group 226" transform="translate(15.14)">
            <g id="Group_225" data-name="Group 225">
              <g id="Group_224" data-name="Group 224">
                <path id="Path_115950" data-name="Path 115950" d="M30.369,55.315H25.5a2.837,2.837,0,0,1-2.837-2.837V16.893A2.837,2.837,0,0,1,25.5,14.055h4.872a2.837,2.837,0,0,1,2.837,2.837V52.478A2.837,2.837,0,0,1,30.369,55.315Z" transform="translate(-22.66 -14.055)" fill="#ed1c23"/>
              </g>
            </g>
          </g>
        </g>
        <g id="Group_237" data-name="Group 237" transform="translate(33.668 29.347)">
          <g id="Group_230" data-name="Group 230">
            <g id="Group_229" data-name="Group 229">
              <g id="Group_228" data-name="Group 228">
                <path id="Path_115951" data-name="Path 115951" d="M26.419,16.381a2.044,2.044,0,0,0-.518-.068H21.033a2.823,2.823,0,0,0-2.839,2.817v35.6a1.755,1.755,0,0,0,.068.5,2.785,2.785,0,0,1-2.321-2.749v-35.6A2.823,2.823,0,0,1,18.78,14.06h4.867A2.773,2.773,0,0,1,26.419,16.381Z" transform="translate(-15.94 -14.06)" fill="#f5811f"/>
              </g>
            </g>
          </g>
          <g id="Group_233" data-name="Group 233" transform="translate(30.286)">
            <g id="Group_232" data-name="Group 232">
              <g id="Group_231" data-name="Group 231">
                <path id="Path_115952" data-name="Path 115952" d="M39.859,16.381a1.916,1.916,0,0,0-.518-.068H34.473a2.823,2.823,0,0,0-2.839,2.817v35.6a1.755,1.755,0,0,0,.068.5,2.785,2.785,0,0,1-2.321-2.749v-35.6A2.823,2.823,0,0,1,32.22,14.06h4.867A2.808,2.808,0,0,1,39.859,16.381Z" transform="translate(-29.38 -14.06)" fill="#f5811f"/>
              </g>
            </g>
          </g>
          <g id="Group_236" data-name="Group 236" transform="translate(15.143)">
            <g id="Group_235" data-name="Group 235">
              <g id="Group_234" data-name="Group 234">
                <path id="Path_115953" data-name="Path 115953" d="M33.139,16.381a2.04,2.04,0,0,0-.518-.068H27.753a2.823,2.823,0,0,0-2.839,2.817v35.6a1.755,1.755,0,0,0,.068.5,2.785,2.785,0,0,1-2.321-2.749v-35.6A2.823,2.823,0,0,1,25.5,14.06h4.867A2.773,2.773,0,0,1,33.139,16.381Z" transform="translate(-22.66 -14.06)" fill="#f5811f"/>
              </g>
            </g>
          </g>
        </g>
        <g id="Group_240" data-name="Group 240" transform="translate(46.135 84.681)">
          <g id="Group_239" data-name="Group 239">
            <g id="Group_238" data-name="Group 238">
              <path id="Path_115954" data-name="Path 115954" d="M37.369,55.978h-15.9V41.187a2.572,2.572,0,0,1,2.572-2.572H34.8a2.572,2.572,0,0,1,2.572,2.572Z" transform="translate(-21.473 -38.615)" fill="#01adef"/>
            </g>
          </g>
        </g>
        <g id="Group_243" data-name="Group 243" transform="translate(46.13 84.692)">
          <g id="Group_242" data-name="Group 242">
            <g id="Group_241" data-name="Group 241">
              <path id="Path_115955" data-name="Path 115955" d="M37.379,41.166a1.091,1.091,0,0,0-.27-.023H26.338a2.568,2.568,0,0,0-2.569,2.569V55.971h-2.3V41.189a2.568,2.568,0,0,1,2.569-2.569H34.811A2.562,2.562,0,0,1,37.379,41.166Z" transform="translate(-21.47 -38.62)" fill="#01adef"/>
            </g>
          </g>
        </g>
        <g id="Group_256" data-name="Group 256" transform="translate(32.763 13.594)">
          <g id="Group_246" data-name="Group 246" transform="translate(0 0)">
            <g id="Group_244" data-name="Group 244" transform="translate(0.224 0.224)">
              <path id="Path_115956" data-name="Path 115956" d="M15.832,17.532a.656.656,0,0,1-.194-.478v-8.9a.957.957,0,0,1,.284-.693.925.925,0,0,1,.687-.29H17.1a.9.9,0,0,1,.544.178,1.092,1.092,0,0,1,.365.449l3.385,8.437L24.777,7.8a1.11,1.11,0,0,1,.365-.449.91.91,0,0,1,.546-.178h.491a.925.925,0,0,1,.687.29.957.957,0,0,1,.284.693v8.9a.661.661,0,0,1-.671.671.678.678,0,0,1-.484-.194.638.638,0,0,1-.2-.478V8.586L22.348,17.1a1,1,0,0,1-.381.456,1.043,1.043,0,0,1-1.147,0,.984.984,0,0,1-.381-.456L17,8.586v8.468a.638.638,0,0,1-.2.478.678.678,0,0,1-.484.194A.656.656,0,0,1,15.832,17.532Z" transform="translate(-15.638 -7.169)" fill="#fff"/>
            </g>
            <g id="Group_245" data-name="Group 245">
              <path id="Path_115957" data-name="Path 115957" d="M26.6,18.074a.905.905,0,0,1-.64-.255.858.858,0,0,1-.271-.64V9.868l-3.01,7.438a1.221,1.221,0,0,1-.467.561,1.292,1.292,0,0,1-1.393,0,1.219,1.219,0,0,1-.464-.557L17.345,9.868v7.311a.858.858,0,0,1-.271.64.924.924,0,0,1-1.276,0l0,0a.877.877,0,0,1-.257-.636v-8.9a1.184,1.184,0,0,1,.348-.852,1.142,1.142,0,0,1,.847-.357h.491a1.118,1.118,0,0,1,.676.22,1.339,1.339,0,0,1,.44.541l3.178,7.922,3.176-7.916a1.337,1.337,0,0,1,.44-.546,1.133,1.133,0,0,1,.68-.222H26.3a1.142,1.142,0,0,1,.847.357,1.184,1.184,0,0,1,.348.852v8.9a.877.877,0,0,1-.257.636A.888.888,0,0,1,26.6,18.074ZM26.141,7.553v9.626a.414.414,0,0,0,.134.315.467.467,0,0,0,.647,0,.426.426,0,0,0,.128-.317v-8.9a.731.731,0,0,0-.22-.535.7.7,0,0,0-.526-.224h-.491a.7.7,0,0,0-.414.136.867.867,0,0,0-.29.357l-3.591,8.952L17.924,8a.847.847,0,0,0-.29-.35.66.66,0,0,0-.409-.136h-.491a.7.7,0,0,0-.526.224.731.731,0,0,0-.22.535v8.9a.438.438,0,0,0,.128.319.462.462,0,0,0,.647,0,.414.414,0,0,0,.134-.315V7.553l3.878,9.586a.759.759,0,0,0,.295.35.8.8,0,0,0,.9,0,.777.777,0,0,0,.3-.354Z" transform="translate(-15.538 -7.069)" fill="#fff"/>
            </g>
          </g>
          <g id="Group_249" data-name="Group 249" transform="translate(14.3 0)">
            <g id="Group_247" data-name="Group 247" transform="translate(0.224 0.224)">
              <path id="Path_115958" data-name="Path 115958" d="M22.169,17.532a.666.666,0,0,1-.185-.478.808.808,0,0,1,.075-.3l3.8-8.974a1.139,1.139,0,0,1,.337-.44.819.819,0,0,1,.528-.172h.15a.829.829,0,0,1,.53.172,1.156,1.156,0,0,1,.334.44l3.8,8.974a.855.855,0,0,1,.075.3.668.668,0,0,1-.187.478.65.65,0,0,1-.484.194.678.678,0,0,1-.381-.112.711.711,0,0,1-.262-.306l-.968-2.326h-5.07L23.3,17.307a.711.711,0,0,1-.262.306.676.676,0,0,1-.379.112A.651.651,0,0,1,22.169,17.532Zm2.617-3.787h4.027L26.8,8.9Z" transform="translate(-21.984 -7.169)" fill="#fff"/>
            </g>
            <g id="Group_248" data-name="Group 248">
              <path id="Path_115959" data-name="Path 115959" d="M31.07,18.074a.906.906,0,0,1-.5-.147.948.948,0,0,1-.343-.4l-.913-2.2H24.538l-.909,2.187a.961.961,0,0,1-.348.409.932.932,0,0,1-1.149-.112l0,0a.881.881,0,0,1-.246-.632.991.991,0,0,1,.092-.387l3.8-8.974a1.35,1.35,0,0,1,.4-.528,1.027,1.027,0,0,1,.667-.22H27a1.042,1.042,0,0,1,.669.22,1.379,1.379,0,0,1,.4.524l3.8,8.979a1.054,1.054,0,0,1,.092.387.886.886,0,0,1-.249.632A.869.869,0,0,1,31.07,18.074Zm-6.831-3.193h5.37l1.028,2.465a.486.486,0,0,0,.176.2.466.466,0,0,0,.581-.051.433.433,0,0,0,.123-.319.658.658,0,0,0-.059-.216l-3.8-8.97a.952.952,0,0,0-.268-.352A.607.607,0,0,0,27,7.518h-.15a.6.6,0,0,0-.387.123A.916.916,0,0,0,26.191,8l-3.8,8.97a.615.615,0,0,0-.057.211.441.441,0,0,0,.123.321.467.467,0,0,0,.579.048.5.5,0,0,0,.18-.211Zm5.035-.788h-4.7l2.35-5.658Zm-4.027-.449H28.6L26.924,9.611Z" transform="translate(-21.884 -7.069)" fill="#fff"/>
            </g>
          </g>
          <g id="Group_252" data-name="Group 252" transform="translate(26.718 0.001)">
            <g id="Group_250" data-name="Group 250" transform="translate(0.224 0.224)">
              <path id="Path_115960" data-name="Path 115960" d="M27.772,17.375a.9.9,0,0,1-.277-.665V7.855a.678.678,0,0,1,.194-.484.638.638,0,0,1,.478-.2.691.691,0,0,1,.687.687v8.437h4.874a.691.691,0,0,1,.687.687.638.638,0,0,1-.2.478.669.669,0,0,1-.484.194H28.434A.906.906,0,0,1,27.772,17.375Z" transform="translate(-27.494 -7.169)" fill="#fff"/>
            </g>
            <g id="Group_251" data-name="Group 251">
              <path id="Path_115961" data-name="Path 115961" d="M33.852,18H28.559a1.168,1.168,0,0,1-1.164-1.164V7.98a.9.9,0,0,1,1.538-.643.88.88,0,0,1,.268.643v8.213h4.65a.917.917,0,0,1,.911.911.858.858,0,0,1-.271.64A.894.894,0,0,1,33.852,18ZM28.29,7.518a.414.414,0,0,0-.315.134.445.445,0,0,0-.132.328v8.855a.692.692,0,0,0,.211.506.681.681,0,0,0,.5.209h5.293a.441.441,0,0,0,.328-.132.414.414,0,0,0,.134-.315.466.466,0,0,0-.462-.462h-5.1V7.98a.466.466,0,0,0-.462-.462Z" transform="translate(-27.395 -7.069)" fill="#fff"/>
            </g>
          </g>
          <g id="Group_255" data-name="Group 255" transform="translate(35.901 0.001)">
            <g id="Group_253" data-name="Group 253" transform="translate(0.224 0.224)">
              <path id="Path_115962" data-name="Path 115962" d="M31.847,17.375a.9.9,0,0,1-.277-.665V7.855a.678.678,0,0,1,.194-.484.638.638,0,0,1,.478-.2.691.691,0,0,1,.687.687v8.437H37.8a.691.691,0,0,1,.687.687.638.638,0,0,1-.2.478.669.669,0,0,1-.484.194H32.509A.906.906,0,0,1,31.847,17.375Z" transform="translate(-31.57 -7.169)" fill="#fff"/>
            </g>
            <g id="Group_254" data-name="Group 254">
              <path id="Path_115963" data-name="Path 115963" d="M37.927,18H32.634a1.168,1.168,0,0,1-1.164-1.164V7.98a.9.9,0,0,1,1.538-.643.88.88,0,0,1,.268.643v8.213h4.65a.917.917,0,0,1,.911.911.858.858,0,0,1-.271.64A.894.894,0,0,1,37.927,18ZM32.366,7.518a.414.414,0,0,0-.315.134.445.445,0,0,0-.132.328v8.855a.692.692,0,0,0,.211.506.681.681,0,0,0,.5.209h5.293a.441.441,0,0,0,.328-.132.414.414,0,0,0,.134-.315.466.466,0,0,0-.462-.462h-5.1V7.98a.466.466,0,0,0-.462-.462Z" transform="translate(-31.47 -7.069)" fill="#fff"/>
            </g>
          </g>
        </g>
        <g id="Group_275" data-name="Group 275" transform="translate(8.807 22.745)">
          <g id="Group_259" data-name="Group 259">
            <g id="Group_258" data-name="Group 258">
              <g id="Group_257" data-name="Group 257">
                <path id="Path_115964" data-name="Path 115964" d="M16.97,24.361H6.76a1.853,1.853,0,0,1-1.853-1.853V12.983A1.853,1.853,0,0,1,6.76,11.13H16.97a1.853,1.853,0,0,1,1.853,1.853v9.526A1.853,1.853,0,0,1,16.97,24.361Z" transform="translate(-4.908 -11.13)" fill="#ed1c23"/>
              </g>
            </g>
          </g>
          <g id="Group_262" data-name="Group 262" transform="translate(0 18.037)">
            <g id="Group_261" data-name="Group 261">
              <g id="Group_260" data-name="Group 260">
                <path id="Path_115965" data-name="Path 115965" d="M16.97,32.365H6.76a1.853,1.853,0,0,1-1.853-1.853V20.987A1.853,1.853,0,0,1,6.76,19.134H16.97a1.853,1.853,0,0,1,1.853,1.853v9.526A1.853,1.853,0,0,1,16.97,32.365Z" transform="translate(-4.908 -19.134)" fill="#ed1c23"/>
              </g>
            </g>
          </g>
          <g id="Group_265" data-name="Group 265" transform="translate(0 36.075)">
            <g id="Group_264" data-name="Group 264">
              <g id="Group_263" data-name="Group 263">
                <path id="Path_115966" data-name="Path 115966" d="M16.97,40.369H6.76a1.853,1.853,0,0,1-1.853-1.853V28.991A1.853,1.853,0,0,1,6.76,27.139H16.97a1.853,1.853,0,0,1,1.853,1.853v9.526A1.853,1.853,0,0,1,16.97,40.369Z" transform="translate(-4.908 -27.139)" fill="#ed1c23"/>
              </g>
            </g>
          </g>
          <g id="Group_268" data-name="Group 268" transform="translate(76.344)">
            <g id="Group_267" data-name="Group 267">
              <g id="Group_266" data-name="Group 266">
                <path id="Path_115967" data-name="Path 115967" d="M50.849,24.361H40.639a1.853,1.853,0,0,1-1.853-1.853V12.983a1.853,1.853,0,0,1,1.853-1.853h10.21A1.853,1.853,0,0,1,52.7,12.983v9.526A1.853,1.853,0,0,1,50.849,24.361Z" transform="translate(-38.786 -11.13)" fill="#ed1c23"/>
              </g>
            </g>
          </g>
          <g id="Group_271" data-name="Group 271" transform="translate(76.344 18.037)">
            <g id="Group_270" data-name="Group 270">
              <g id="Group_269" data-name="Group 269">
                <path id="Path_115968" data-name="Path 115968" d="M50.849,32.365H40.639a1.853,1.853,0,0,1-1.853-1.853V20.987a1.853,1.853,0,0,1,1.853-1.853h10.21A1.853,1.853,0,0,1,52.7,20.987v9.526A1.853,1.853,0,0,1,50.849,32.365Z" transform="translate(-38.786 -19.134)" fill="#ed1c23"/>
              </g>
            </g>
          </g>
          <g id="Group_274" data-name="Group 274" transform="translate(76.344 36.075)">
            <g id="Group_273" data-name="Group 273">
              <g id="Group_272" data-name="Group 272">
                <path id="Path_115969" data-name="Path 115969" d="M50.849,40.369H40.639a1.853,1.853,0,0,1-1.853-1.853V28.991a1.853,1.853,0,0,1,1.853-1.853h10.21A1.853,1.853,0,0,1,52.7,28.991v9.526A1.853,1.853,0,0,1,50.849,40.369Z" transform="translate(-38.786 -27.139)" fill="#ed1c23"/>
              </g>
            </g>
          </g>
        </g>
        <g id="Group_294" data-name="Group 294" transform="translate(8.813 22.744)">
          <g id="Group_278" data-name="Group 278">
            <g id="Group_277" data-name="Group 277">
              <g id="Group_276" data-name="Group 276">
                <path id="Path_115970" data-name="Path 115970" d="M18.814,12.978v.451H8.967A1.866,1.866,0,0,0,7.1,15.3v9.059H6.758A1.856,1.856,0,0,1,4.91,22.51V12.978A1.856,1.856,0,0,1,6.758,11.13H16.966A1.856,1.856,0,0,1,18.814,12.978Z" transform="translate(-4.91 -11.13)" fill="#f5811f"/>
              </g>
            </g>
          </g>
          <g id="Group_281" data-name="Group 281" transform="translate(0 18.028)">
            <g id="Group_280" data-name="Group 280">
              <g id="Group_279" data-name="Group 279">
                <path id="Path_115971" data-name="Path 115971" d="M18.814,21v.451H8.967A1.861,1.861,0,0,0,7.1,23.3V32.38H6.758A1.861,1.861,0,0,1,4.91,30.51V21a1.861,1.861,0,0,1,1.848-1.87H16.966A1.861,1.861,0,0,1,18.814,21Z" transform="translate(-4.91 -19.13)" fill="#f5811f"/>
              </g>
            </g>
          </g>
          <g id="Group_284" data-name="Group 284" transform="translate(0 36.078)">
            <g id="Group_283" data-name="Group 283">
              <g id="Group_282" data-name="Group 282">
                <path id="Path_115972" data-name="Path 115972" d="M18.814,28.988v.451H8.967A1.861,1.861,0,0,0,7.1,31.286v9.081H6.758A1.856,1.856,0,0,1,4.91,38.52V28.988A1.856,1.856,0,0,1,6.758,27.14H16.966A1.856,1.856,0,0,1,18.814,28.988Z" transform="translate(-4.91 -27.14)" fill="#f5811f"/>
              </g>
            </g>
          </g>
          <g id="Group_287" data-name="Group 287" transform="translate(76.347)">
            <g id="Group_286" data-name="Group 286">
              <g id="Group_285" data-name="Group 285">
                <path id="Path_115973" data-name="Path 115973" d="M52.694,12.978v.451h-9.87a1.861,1.861,0,0,0-1.848,1.87v9.059h-.338A1.841,1.841,0,0,1,38.79,22.51V12.978a1.841,1.841,0,0,1,1.847-1.848H50.846A1.856,1.856,0,0,1,52.694,12.978Z" transform="translate(-38.79 -11.13)" fill="#f5811f"/>
              </g>
            </g>
          </g>
          <g id="Group_290" data-name="Group 290" transform="translate(76.347 18.028)">
            <g id="Group_289" data-name="Group 289">
              <g id="Group_288" data-name="Group 288">
                <path id="Path_115974" data-name="Path 115974" d="M52.694,21v.451h-9.87A1.856,1.856,0,0,0,40.976,23.3V32.38h-.338a1.846,1.846,0,0,1-1.847-1.87V21a1.846,1.846,0,0,1,1.847-1.87H50.846A1.861,1.861,0,0,1,52.694,21Z" transform="translate(-38.79 -19.13)" fill="#f5811f"/>
              </g>
            </g>
          </g>
          <g id="Group_293" data-name="Group 293" transform="translate(76.347 36.078)">
            <g id="Group_292" data-name="Group 292">
              <g id="Group_291" data-name="Group 291">
                <path id="Path_115975" data-name="Path 115975" d="M52.694,28.988v.451h-9.87a1.856,1.856,0,0,0-1.848,1.848v9.081h-.338A1.841,1.841,0,0,1,38.79,38.52V28.988a1.841,1.841,0,0,1,1.847-1.848H50.846A1.856,1.856,0,0,1,52.694,28.988Z" transform="translate(-38.79 -27.14)" fill="#f5811f"/>
              </g>
            </g>
          </g>
        </g>
      </g>
      <g id="Group_302" data-name="Group 302" transform="translate(71.442 54.639)">
        <g id="Group_298" data-name="Group 298" transform="translate(0 4.1)" opacity="0.4">
          <g id="Group_297" data-name="Group 297">
            <g id="Group_296" data-name="Group 296">
              <path id="Path_115976" data-name="Path 115976" d="M32.259,33.827l.061-6.339a.854.854,0,1,1,1.707.017l-.061,6.339a.854.854,0,1,1-1.707-.017Z" transform="translate(-32.259 -26.643)" fill="#fff"/>
            </g>
          </g>
        </g>
        <g id="Group_301" data-name="Group 301" transform="translate(0.095)" opacity="0.4">
          <g id="Group_300" data-name="Group 300">
            <g id="Group_299" data-name="Group 299">
              <path id="Path_115977" data-name="Path 115977" d="M32.3,26.29l.006-.621a.854.854,0,1,1,1.707.017l-.006.621A.854.854,0,0,1,32.3,26.29Z" transform="translate(-32.301 -24.823)" fill="#fff"/>
            </g>
          </g>
        </g>
      </g>
      <g id="Group_309" data-name="Group 309" transform="translate(56.278 54.639)">
        <g id="Group_305" data-name="Group 305" transform="translate(0 4.1)" opacity="0.4">
          <g id="Group_304" data-name="Group 304">
            <g id="Group_303" data-name="Group 303">
              <path id="Path_115978" data-name="Path 115978" d="M25.53,33.827l.061-6.339A.854.854,0,0,1,27.3,27.5l-.061,6.339a.854.854,0,1,1-1.707-.017Z" transform="translate(-25.53 -26.643)" fill="#fff"/>
            </g>
          </g>
        </g>
        <g id="Group_308" data-name="Group 308" transform="translate(0.095)" opacity="0.4">
          <g id="Group_307" data-name="Group 307">
            <g id="Group_306" data-name="Group 306">
              <path id="Path_115979" data-name="Path 115979" d="M25.572,26.29l.006-.621a.854.854,0,0,1,1.707.017l-.006.621a.854.854,0,1,1-1.707-.017Z" transform="translate(-25.572 -24.823)" fill="#fff"/>
            </g>
          </g>
        </g>
      </g>
      <g id="Group_316" data-name="Group 316" transform="translate(41.114 54.639)">
        <g id="Group_312" data-name="Group 312" transform="translate(0 4.1)" opacity="0.4">
          <g id="Group_311" data-name="Group 311">
            <g id="Group_310" data-name="Group 310">
              <path id="Path_115980" data-name="Path 115980" d="M18.8,33.827l.061-6.339a.854.854,0,0,1,1.707.017l-.061,6.339a.854.854,0,1,1-1.707-.017Z" transform="translate(-18.801 -26.643)" fill="#fff"/>
            </g>
          </g>
        </g>
        <g id="Group_315" data-name="Group 315" transform="translate(0.095)" opacity="0.4">
          <g id="Group_314" data-name="Group 314">
            <g id="Group_313" data-name="Group 313">
              <path id="Path_115981" data-name="Path 115981" d="M18.843,26.29l.006-.621a.854.854,0,0,1,1.707.017l-.006.621a.854.854,0,0,1-1.707-.017Z" transform="translate(-18.843 -24.823)" fill="#fff"/>
            </g>
          </g>
        </g>
      </g>
      <g id="Group_320" data-name="Group 320" transform="translate(94.468 68.209)" opacity="0.4">
        <g id="Group_319" data-name="Group 319">
          <g id="Group_318" data-name="Group 318">
            <g id="Group_317" data-name="Group 317">
              <path id="Path_115982" data-name="Path 115982" d="M45.941,34.308h-2.93a.533.533,0,1,1,0-1.065h2.44V31.378a.533.533,0,0,1,1.066,0v2.357a.53.53,0,0,1-.163.382A.682.682,0,0,1,45.941,34.308Z" transform="translate(-42.478 -30.845)" fill="#fff"/>
            </g>
          </g>
        </g>
      </g>
      <g id="Group_324" data-name="Group 324" transform="translate(94.468 49.865)" opacity="0.4">
        <g id="Group_323" data-name="Group 323">
          <g id="Group_322" data-name="Group 322">
            <g id="Group_321" data-name="Group 321">
              <path id="Path_115983" data-name="Path 115983" d="M45.941,26.167h-2.93a.533.533,0,1,1,0-1.065h2.44V23.237a.533.533,0,0,1,1.066,0v2.357a.53.53,0,0,1-.163.382A.682.682,0,0,1,45.941,26.167Z" transform="translate(-42.478 -22.705)" fill="#fff"/>
            </g>
          </g>
        </g>
      </g>
      <g id="Group_328" data-name="Group 328" transform="translate(94.468 31.52)" opacity="0.4">
        <g id="Group_327" data-name="Group 327">
          <g id="Group_326" data-name="Group 326">
            <g id="Group_325" data-name="Group 325">
              <path id="Path_115984" data-name="Path 115984" d="M45.941,18.026h-2.93a.533.533,0,1,1,0-1.065h2.44V15.1a.533.533,0,0,1,1.066,0v2.357a.53.53,0,0,1-.163.382A.682.682,0,0,1,45.941,18.026Z" transform="translate(-42.478 -14.564)" fill="#fff"/>
            </g>
          </g>
        </g>
      </g>
      <g id="Group_332" data-name="Group 332" transform="translate(17.903 68.209)" opacity="0.4">
        <g id="Group_331" data-name="Group 331">
          <g id="Group_330" data-name="Group 330">
            <g id="Group_329" data-name="Group 329">
              <path id="Path_115985" data-name="Path 115985" d="M11.964,34.308H9.034a.533.533,0,1,1,0-1.065h2.44V31.378a.533.533,0,0,1,1.066,0v2.357a.53.53,0,0,1-.163.382A.682.682,0,0,1,11.964,34.308Z" transform="translate(-8.501 -30.845)" fill="#fff"/>
            </g>
          </g>
        </g>
      </g>
      <g id="Group_336" data-name="Group 336" transform="translate(17.903 49.865)" opacity="0.4">
        <g id="Group_335" data-name="Group 335">
          <g id="Group_334" data-name="Group 334">
            <g id="Group_333" data-name="Group 333">
              <path id="Path_115986" data-name="Path 115986" d="M11.964,26.167H9.034a.533.533,0,1,1,0-1.065h2.44V23.237a.533.533,0,0,1,1.066,0v2.357a.53.53,0,0,1-.163.382A.682.682,0,0,1,11.964,26.167Z" transform="translate(-8.501 -22.705)" fill="#fff"/>
            </g>
          </g>
        </g>
      </g>
      <g id="Group_340" data-name="Group 340" transform="translate(17.903 31.52)" opacity="0.4">
        <g id="Group_339" data-name="Group 339">
          <g id="Group_338" data-name="Group 338">
            <g id="Group_337" data-name="Group 337">
              <path id="Path_115987" data-name="Path 115987" d="M11.964,18.026H9.034a.533.533,0,1,1,0-1.065h2.44V15.1a.533.533,0,0,1,1.066,0v2.357a.53.53,0,0,1-.163.382A.682.682,0,0,1,11.964,18.026Z" transform="translate(-8.501 -14.564)" fill="#fff"/>
            </g>
          </g>
        </g>
      </g>
    </g>
  </g>
</svg>
