<svg xmlns="http://www.w3.org/2000/svg" width="127.17" height="123.709" viewBox="0 0 127.17 123.709">
  <g id="Group_398" data-name="Group 398" transform="translate(-610.83 -4937.291)">
    <circle id="Ellipse_6" data-name="Ellipse 6" cx="60" cy="60" r="60" transform="translate(614 4941)" fill="#f5f5f5"/>
    <g id="checkpoint" transform="translate(564.815 4866.476)">
      <path id="Path_115911" data-name="Path 115911" d="M175.258,83.166,159.376,89.34V76.992Z" transform="translate(-78.025 -4.251)" fill="#ed1c23" fill-rule="evenodd"/>
      <path id="Path_115912" data-name="Path 115912" d="M75.563,159.578h52.252v82.11H75.563Z" transform="translate(-20.338 -61.094)" fill="#2f3093" fill-rule="evenodd"/>
      <path id="Path_115913" data-name="Path 115913" d="M106.558,198.622h26.45a4.72,4.72,0,0,1,4.706,4.706v26.45a4.72,4.72,0,0,1-4.706,4.706h-26.45a4.72,4.72,0,0,1-4.706-4.706v-26.45a4.72,4.72,0,0,1,4.706-4.706Z" transform="translate(-38.432 -87.967)" fill="#01adef" fill-rule="evenodd"/>
      <path id="Path_115914" data-name="Path 115914" d="M135.454,223.091,138,230.978l8.288-.016-6.715,4.859,2.576,7.878-6.7-4.885-6.7,4.885,2.576-7.878-6.714-4.859,8.288.016Z" transform="translate(-54.103 -104.809)" fill="#f5811f" fill-rule="evenodd"/>
      <path id="Path_115915" data-name="Path 115915" d="M119.287,147.991v4.3a1.953,1.953,0,0,1-1.947,1.947H54.865a1.953,1.953,0,0,1-1.947-1.947v-4.3a1.953,1.953,0,0,1,1.947-1.947H117.34A1.953,1.953,0,0,1,119.287,147.991Z" transform="translate(-4.751 -51.779)" fill="#01adef" fill-rule="evenodd"/>
      <path id="Path_115916" data-name="Path 115916" d="M290.582,298.573h8.925v38.783h-8.925Z" transform="translate(-168.332 -156.762)" fill="#ed1c23" fill-rule="evenodd"/>
      <path id="Path_115917" data-name="Path 115917" d="M272.452,199.326,316.972,154.8a3.743,3.743,0,0,1,5.278,0l2.869,2.869a3.743,3.743,0,0,1,0,5.278L280.6,207.472a3.743,3.743,0,0,1-5.278,0l-2.869-2.869a3.743,3.743,0,0,1,0-5.278Z" transform="translate(-155.104 -57.059)" fill="#2f3093" fill-rule="evenodd"/>
      <path id="Path_115918" data-name="Path 115918" d="M313.133,242.05l8.925-8.925v16.294l-8.925,8.925Z" transform="translate(-183.854 -111.715)" fill="#ed1c23" fill-rule="evenodd"/>
      <path id="Path_115919" data-name="Path 115919" d="M376.906,178.276l8.925-8.925v16.294l-8.925,8.925Z" transform="translate(-227.748 -67.821)" fill="#ed1c23" fill-rule="evenodd"/>
      <path id="Path_115920" data-name="Path 115920" d="M57.126,104.388h48.393V178.67H57.126Zm-7.047-3.853-.017-4.321-1.835-.575,1.852.557h62.47l.033.018v4.3l1.835.575-1.868-.557Zm74.057,52.735a5.657,5.657,0,0,0,2.688-1.493l2.393-2.389V178.67h-5.08Zm-5.457-7.086,2.868,2.87a1.81,1.81,0,0,0,2.557,0l3.212-3.222V134.99l-8.636,8.643A1.8,1.8,0,0,0,118.679,146.184ZM163.2,99.112a1.8,1.8,0,0,1,2.54,0l2.868,2.868a1.812,1.812,0,0,1,0,2.553l-8.636,8.641V102.332Zm-26.958,37.8-5.08,5.072V131.135l5.08-5.07Zm14.8-25.65,5.08-5.072v10.844l-5.08,5.07Zm-3.851,14.7-7.1,7.1V122.21l7.1-7.1ZM91.884,78.917l-8.636,3.358V75.559Zm79.383,99.753h-38.2V145.534l38.282-38.274a5.689,5.689,0,0,0,0-8.007l-2.868-2.866a5.676,5.676,0,0,0-8.014,0l-44.526,44.521a5.685,5.685,0,0,0,0,8l2.884,2.866a5.647,5.647,0,0,0,1.458,1.055V178.67H109.37V104.388h3.179a3.879,3.879,0,0,0,3.884-3.874v-4.3a3.879,3.879,0,0,0-3.884-3.874h-29.3V86.409l14.651-5.7a1.93,1.93,0,0,0,0-3.592l-15.88-6.173a1.925,1.925,0,0,0-2.622,1.8v19.6H50.079a3.876,3.876,0,0,0-3.867,3.874v4.3a3.875,3.875,0,0,0,3.867,3.874h3.179V178.67H47.932a1.927,1.927,0,0,0,0,3.854H171.267a1.927,1.927,0,0,0,0-3.855ZM83.608,131.614a1.913,1.913,0,0,1,.7-2.161l1.868-1.358-2.311,0a1.9,1.9,0,0,1-1.835-1.336l-.721-2.2-.7,2.2a1.934,1.934,0,0,1-1.835,1.336l-2.327,0,1.885,1.358a1.963,1.963,0,0,1,.7,2.161l-.721,2.2,1.868-1.367a1.939,1.939,0,0,1,2.278,0l1.868,1.367Zm8.538-7.384-6.883.013-2.114-6.55a1.932,1.932,0,0,0-3.671,0l-2.114,6.55-6.883-.013a1.929,1.929,0,0,0-1.131,3.489l5.572,4.035-2.13,6.54a1.933,1.933,0,0,0,2.966,2.157l5.555-4.058,5.556,4.058a1.942,1.942,0,0,0,2.982-2.157l-2.147-6.54,5.572-4.035a1.93,1.93,0,0,0-1.131-3.489Zm5.178,17.584V115.362a2.781,2.781,0,0,0-2.786-2.776H68.089a2.778,2.778,0,0,0-2.77,2.776v26.452a2.782,2.782,0,0,0,2.77,2.781h26.45A2.786,2.786,0,0,0,97.325,141.813Zm-2.786-33.082H68.089a6.646,6.646,0,0,0-6.637,6.63v26.452a6.645,6.645,0,0,0,6.637,6.634h26.45a6.645,6.645,0,0,0,6.637-6.634V115.362A6.646,6.646,0,0,0,94.539,108.731Z" transform="translate(0 0)" fill="#1e2f3f" fill-rule="evenodd"/>
    </g>
  </g>
</svg>
