<svg xmlns="http://www.w3.org/2000/svg" width="120" height="124" viewBox="0 0 120 124">
  <g id="Group_402" data-name="Group 402" transform="translate(-1160.585 -5197)">
    <circle id="Ellipse_15" data-name="Ellipse 15" cx="60" cy="60" r="60" transform="translate(1160.585 5201)" fill="#f5f5f5"/>
    <g id="cleaning-2" transform="translate(1151.129 5197)">
      <g id="Group_350" data-name="Group 350" transform="translate(18.932 41.023)">
        <path id="Path_116102" data-name="Path 116102" d="M110.869,279.672H58.659l-7.459-57.8h67.128Z" transform="translate(-45.606 -214.408)" fill="#ed1c23"/>
        <rect id="Rectangle_44915" data-name="Rectangle 44915" width="78.316" height="7.459" fill="#ed1c23"/>
      </g>
      <path id="Path_116103" data-name="Path 116103" d="M51.2,221.867l.962,7.459h65.2l.962-7.459Z" transform="translate(-26.674 -173.386)" fill="#ed1c23"/>
      <path id="Path_116104" data-name="Path 116104" d="M94.372,94.372H68.267V77.59l7.459-9.323H86.914l7.459,9.323Z" transform="translate(-40.012 -53.35)" fill="#2f3093"/>
      <rect id="Rectangle_44916" data-name="Rectangle 44916" width="11.188" height="13.053" transform="translate(35.714 1.865)" fill="#f5811f"/>
      <rect id="Rectangle_44917" data-name="Rectangle 44917" width="26.105" height="16.782" transform="translate(28.255 24.241)" fill="#2f3093"/>
      <rect id="Rectangle_44918" data-name="Rectangle 44918" width="3.729" height="17.042" transform="matrix(-0.895, 0.447, -0.447, -0.895, 91.456, 23.408)" fill="#e66712"/>
      <g id="Group_351" data-name="Group 351" transform="translate(61.819 1.865)">
        <rect id="Rectangle_44919" data-name="Rectangle 44919" width="7.459" height="7.459" transform="translate(26.105)" fill="#f5811f"/>
        <path id="Path_116105" data-name="Path 116105" d="M238.649,23.45H221.867A14.918,14.918,0,0,1,236.784,8.533h11.188v7.459Z" transform="translate(-221.867 -8.533)" fill="#f5811f"/>
      </g>
      <rect id="Rectangle_44920" data-name="Rectangle 44920" width="11.188" height="7.459" transform="translate(67.413 16.782)" fill="#2f3093"/>
      <path id="Path_116106" data-name="Path 116106" d="M227.461,110.933h11.188l9.323,9.323v7.459H221.867V116.527Z" transform="translate(-160.048 -86.692)" fill="#2f3093"/>
      <path id="Path_116107" data-name="Path 116107" d="M317.029,366.933h-2.92a11.35,11.35,0,0,0-5.066,1.2,11.318,11.318,0,0,1-10.133,0,11.353,11.353,0,0,0-5.066-1.2h-2.92a9.324,9.324,0,0,0-9.323,9.323v11.188a9.324,9.324,0,0,0,9.323,9.323h2.92a11.35,11.35,0,0,0,5.066-1.2,11.318,11.318,0,0,1,10.133,0,11.35,11.35,0,0,0,5.066,1.2h2.92a9.324,9.324,0,0,0,9.323-9.323V376.256A9.324,9.324,0,0,0,317.029,366.933Z" transform="translate(-206.728 -286.752)" fill="#01adef"/>
      <path id="Path_116108" data-name="Path 116108" d="M317.029,385.58h-2.92a11.35,11.35,0,0,1-5.066-1.2h0a11.318,11.318,0,0,0-10.133,0h0a11.353,11.353,0,0,1-5.066,1.2h-2.92a9.324,9.324,0,0,1-9.323-9.323h0a9.324,9.324,0,0,1,9.323-9.323h2.92a11.35,11.35,0,0,1,5.066,1.2h0a11.318,11.318,0,0,0,10.133,0h0a11.353,11.353,0,0,1,5.066-1.2h2.92a9.324,9.324,0,0,1,9.323,9.323h0A9.324,9.324,0,0,1,317.029,385.58Z" transform="translate(-206.728 -286.752)" fill="#01adef"/>
      <g id="Group_352" data-name="Group 352" transform="translate(82.33 85.775)">
        <rect id="Rectangle_44921" data-name="Rectangle 44921" width="3.729" height="3.729" transform="translate(26.105)" fill="#f5a338"/>
        <rect id="Rectangle_44922" data-name="Rectangle 44922" width="3.729" height="3.729" transform="translate(7.459)" fill="#f5a338"/>
        <rect id="Rectangle_44923" data-name="Rectangle 44923" width="3.729" height="3.729" transform="translate(0 1.865)" fill="#f5a338"/>
        <rect id="Rectangle_44924" data-name="Rectangle 44924" width="3.729" height="3.729" transform="translate(18.647 1.865)" fill="#f5a338"/>
      </g>
      <path id="Path_116109" data-name="Path 116109" d="M140.768,202.65V187.733H110.933V230.62a5.594,5.594,0,0,0,5.594,5.594h18.647a5.594,5.594,0,0,0,5.594-5.594V211.974l7.57,3.785a4.043,4.043,0,0,0,5.424-1.8s0,0,0,0l.047-.093a4.164,4.164,0,0,0-1.82-5.6l-.026-.013Z" transform="translate(-73.355 -146.71)" fill="#01adef"/>
      <path id="Path_116110" data-name="Path 116110" d="M152.245,208.244l-11.2-5.594V187.733h-1.413c-6.769,22.255-18.647,35.856-28.343,43.71a5.579,5.579,0,0,0,5.516,4.772h18.647a5.594,5.594,0,0,0,5.594-5.594V211.974l7.57,3.785a4.043,4.043,0,0,0,5.424-1.8s0,0,0,0l.047-.093a4.164,4.164,0,0,0-1.82-5.6C152.262,208.254,152.255,208.248,152.245,208.244Z" transform="translate(-73.635 -146.71)" fill="#01adef"/>
      <g id="Group_353" data-name="Group 353" transform="translate(43.172 70.857)">
        <rect id="Rectangle_44925" data-name="Rectangle 44925" width="3.729" height="18.647" fill="#7dbdd1"/>
        <rect id="Rectangle_44926" data-name="Rectangle 44926" width="3.729" height="18.647" transform="translate(7.459)" fill="#7dbdd1"/>
        <rect id="Rectangle_44927" data-name="Rectangle 44927" width="3.729" height="18.647" transform="translate(14.917)" fill="#7dbdd1"/>
      </g>
      <path id="Path_116111" data-name="Path 116111" d="M18.932,50.346h3.955l7.248,56.179a1.864,1.864,0,0,0,1.85,1.626H75.878a11.155,11.155,0,0,0,8.316,3.729h2.92a13.254,13.254,0,0,0,5.9-1.393,9.507,9.507,0,0,1,8.465,0,13.252,13.252,0,0,0,5.9,1.393h2.92a11.2,11.2,0,0,0,11.188-11.188V89.5A11.2,11.2,0,0,0,110.3,78.316h-2.92a13.254,13.254,0,0,0-5.9,1.393,9.507,9.507,0,0,1-8.465,0,13.165,13.165,0,0,0-3.356-1.119l3.634-28.244h3.955a1.865,1.865,0,0,0,1.865-1.865V41.023a1.865,1.865,0,0,0-1.865-1.865H89.789V33.564a1.86,1.86,0,0,0-.546-1.318l-8.777-8.777V17.677l2.827-2.26,4.828,9.657,3.338-1.667L86.27,13.034l2.306-1.846h6.806a1.865,1.865,0,0,0,1.865-1.865V1.865A1.865,1.865,0,0,0,95.383,0H76.736A16.8,16.8,0,0,0,59.954,16.782a1.865,1.865,0,0,0,1.865,1.865h3.729v4.822L60.5,28.516a1.86,1.86,0,0,0-.546,1.318v9.323H56.225V24.241a1.855,1.855,0,0,0-.136-.673,1.787,1.787,0,0,0-.116-.211,2.09,2.09,0,0,0-.157-.282l-7.05-8.811V1.865A1.865,1.865,0,0,0,46.9,0H35.714a1.865,1.865,0,0,0-1.865,1.865v12.4L26.8,23.075a2.09,2.09,0,0,0-.157.282,1.787,1.787,0,0,0-.116.211,1.853,1.853,0,0,0-.136.673V39.158H18.932a1.865,1.865,0,0,0-1.865,1.865v7.459A1.865,1.865,0,0,0,18.932,50.346Zm91.369,57.8h-2.92a9.52,9.52,0,0,1-4.231-1,13.258,13.258,0,0,0-11.8,0,9.52,9.52,0,0,1-4.231,1h-2.92a7.459,7.459,0,0,1-7.459-7.459V97.82a11.126,11.126,0,0,0,7.459,2.872h2.92a13.254,13.254,0,0,0,5.9-1.393,9.507,9.507,0,0,1,8.465,0,13.252,13.252,0,0,0,5.9,1.393h2.92a11.127,11.127,0,0,0,7.459-2.872v2.871A7.458,7.458,0,0,1,110.3,108.15Zm-7.151-25.106a9.52,9.52,0,0,1,4.231-1h2.92a7.459,7.459,0,0,1,0,14.917h-2.92a9.52,9.52,0,0,1-4.231-1,13.258,13.258,0,0,0-11.8,0,9.52,9.52,0,0,1-4.231,1h-2.92a7.459,7.459,0,0,1,0-14.917h2.92a9.52,9.52,0,0,1,4.231,1A13.27,13.27,0,0,0,103.149,83.045ZM85.923,78.316H84.195A11.2,11.2,0,0,0,73.007,89.5v11.188a11.149,11.149,0,0,0,.653,3.729H33.623L26.646,50.346h9.068V83.91a7.459,7.459,0,0,0,7.459,7.459H61.819a7.459,7.459,0,0,0,7.459-7.459V68.28l4.87,2.435a5.942,5.942,0,0,0,7.958-2.7.372.372,0,0,1,.019-.037,6.041,6.041,0,0,0,.341-4.615,5.966,5.966,0,0,0-3.021-3.494L69.278,54.787V50.346H89.533Zm-24.1-35.429h3.729V55.94a1.863,1.863,0,0,0,1.031,1.678l11.188,5.594a2.254,2.254,0,0,1,1.147,1.326,2.393,2.393,0,0,1-.186,1.865,2.177,2.177,0,0,1-2.92.977l-.006,0-7.57-3.785a1.865,1.865,0,0,0-2.683,1.671V83.91a3.728,3.728,0,0,1-3.729,3.729V70.857H58.09V87.639H54.36V70.857H50.631V87.639H46.9V70.857H43.172V87.639a3.728,3.728,0,0,1-3.729-3.729V42.887Zm33.564,3.729H69.278V42.887H95.383ZM93.518,7.459H89.789V3.729h3.729ZM76.736,3.729H86.06v4.7l-8.113,6.489H63.816A13.074,13.074,0,0,1,76.736,3.729Zm0,14.917v3.729H69.278V18.647ZM63.684,30.607l4.5-4.5h9.644l8.231,8.231v4.822H63.684ZM36.609,16.782h9.4l4.475,5.594H32.133Zm.97-13.053h7.459v9.323H37.578ZM30.12,26.105H52.5V39.158H30.12ZM20.8,42.887H35.714v3.729H20.8Z"/>
      <rect id="Rectangle_44928" data-name="Rectangle 44928" width="3.729" height="3.729" transform="translate(108.436 85.775)"/>
      <rect id="Rectangle_44929" data-name="Rectangle 44929" width="3.729" height="3.729" transform="translate(89.789 85.775)"/>
      <rect id="Rectangle_44930" data-name="Rectangle 44930" width="3.729" height="3.729" transform="translate(82.33 87.639)"/>
      <rect id="Rectangle_44931" data-name="Rectangle 44931" width="3.729" height="3.729" transform="translate(100.977 87.639)"/>
    </g>
  </g>
</svg>
