<svg xmlns="http://www.w3.org/2000/svg" width="120" height="120" viewBox="0 0 120 120">
  <g id="Group_441" data-name="Group 441" transform="translate(-107 -5952)">
    <circle id="Ellipse_13" data-name="Ellipse 13" cx="60" cy="60" r="60" transform="translate(107 5952)" fill="#fff"/>
    <g id="teaching" transform="translate(100 5945)">
      <g id="Group_409" data-name="Group 409" transform="translate(122.196 53.828)">
        <path id="Path_116154" data-name="Path 116154" d="M57.4,31.287a2.412,2.412,0,1,1,2.4-2.4,2.481,2.481,0,0,1-.7,1.706A2.526,2.526,0,0,1,57.4,31.287Z" transform="translate(-55 -26.512)" fill="#ed1c23"/>
      </g>
      <g id="Group_410" data-name="Group 410" transform="translate(40.599 97.027)">
        <path id="Path_116155" data-name="Path 116155" d="M23.4,49.287a2.379,2.379,0,1,1,1.706-.7,2.526,2.526,0,0,1-1.706.7Z" transform="translate(-21 -44.512)" fill="#ed1c23"/>
      </g>
      <g id="Group_411" data-name="Group 411" transform="translate(122.196 63.393)">
        <path id="Path_116156" data-name="Path 116156" d="M57.4,44.913a2.4,2.4,0,0,1-2.4-2.4V32.9a2.4,2.4,0,1,1,4.8,0v9.609A2.4,2.4,0,0,1,57.4,44.913Z" transform="translate(-55 -30.5)" fill="#ed1c23"/>
      </g>
      <g id="Group_412" data-name="Group 412" transform="translate(122.196 16.609)">
        <path id="Path_116157" data-name="Path 116157" d="M57.4,43.429a2.4,2.4,0,0,1-2.4-2.4V13.4a2.4,2.4,0,1,1,4.8,0V41.027A2.4,2.4,0,0,1,57.4,43.429Z" transform="translate(-55 -11)" fill="#ed1c23"/>
      </g>
      <g id="Group_413" data-name="Group 413" transform="translate(40.599 59.043)">
        <path id="Path_116158" data-name="Path 116158" d="M23.4,61.861a2.4,2.4,0,0,1-2.4-2.4V31.094a2.4,2.4,0,1,1,4.8,0V59.459A2.4,2.4,0,0,1,23.4,61.861Z" transform="translate(-21 -28.692)" fill="#ed1c23"/>
      </g>
      <g id="Group_414" data-name="Group 414" transform="translate(40.599 106.582)">
        <path id="Path_116159" data-name="Path 116159" d="M23.4,62.913a2.4,2.4,0,0,1-2.4-2.4V50.9a2.4,2.4,0,0,1,4.8,0v9.609A2.4,2.4,0,0,1,23.4,62.913Z" transform="translate(-21 -48.5)" fill="#ed1c23"/>
      </g>
      <g id="Group_415" data-name="Group 415" transform="translate(72.107 77.756)">
        <path id="Path_116160" data-name="Path 116160" d="M36.531,78.557a2.4,2.4,0,0,1-2.4-2.4V38.9a2.4,2.4,0,0,1,4.8,0V76.155A2.4,2.4,0,0,1,36.531,78.557Z" transform="translate(-34.129 -36.5)" fill="#ed1c23"/>
      </g>
      <g id="Group_416" data-name="Group 416" transform="translate(117.391 72.995)">
        <path id="Path_116161" data-name="Path 116161" d="M55.4,44.109a2.4,2.4,0,1,1,0-4.8,2.406,2.406,0,0,0,2.4-2.4,2.4,2.4,0,1,1,4.8,0A7.215,7.215,0,0,1,55.4,44.109Z" transform="translate(-53 -34.5)" fill="#ed1c23"/>
      </g>
      <g id="Group_417" data-name="Group 417" transform="translate(40.522 77.797)">
        <path id="Path_116162" data-name="Path 116162" d="M100.272,41.3H23.4a2.4,2.4,0,1,1,0-4.8h76.869a2.4,2.4,0,0,1,0,4.8Z" transform="translate(-21 -36.5)" fill="#ed1c23"/>
      </g>
      <g id="Group_418" data-name="Group 418" transform="translate(72.625 35.799)">
        <path id="Path_116163" data-name="Path 116163" d="M71.924,23.8H36.766a2.4,2.4,0,0,1,0-4.8H71.924a2.4,2.4,0,0,1,0,4.8Z" transform="translate(-34.364 -19)" fill="#ed1c23"/>
      </g>
      <g id="Group_419" data-name="Group 419" transform="translate(75.317 45.399)">
        <path id="Path_116164" data-name="Path 116164" d="M70.352,27.8H37.887a2.4,2.4,0,1,1,0-4.8H70.352a2.4,2.4,0,1,1,0,4.8Z" transform="translate(-35.485 -23)" fill="#ed1c23"/>
      </g>
      <g id="Group_420" data-name="Group 420" transform="translate(70.537 54.998)">
        <path id="Path_116165" data-name="Path 116165" d="M73.143,31.8H35.9a2.4,2.4,0,1,1,0-4.8H73.143a2.4,2.4,0,1,1,0,4.8Z" transform="translate(-33.495 -27)" fill="#ed1c23"/>
      </g>
      <g id="Group_421" data-name="Group 421" transform="translate(52.57 26.217)">
        <path id="Path_116166" data-name="Path 116166" d="M74.043,19.8H28.4a2.4,2.4,0,1,1,0-4.8H74.043a2.4,2.4,0,0,1,0,4.8Z" transform="translate(-26 -15)" fill="#ed1c23"/>
      </g>
      <g id="Group_422" data-name="Group 422" transform="translate(75.397 7)">
        <path id="Path_116167" data-name="Path 116167" d="M37.9,16.609a2.4,2.4,0,0,1-2.4-2.4V9.4a2.4,2.4,0,1,1,4.8,0v4.8A2.4,2.4,0,0,1,37.9,16.609Z" transform="translate(-35.5 -7)" fill="#ed1c23"/>
      </g>
      <g id="Group_423" data-name="Group 423" transform="translate(28.599 16.609)">
        <path id="Path_116168" data-name="Path 116168" d="M18.4,25.4A2.4,2.4,0,0,1,16,23V13.4a2.4,2.4,0,0,1,4.8,0V23A2.4,2.4,0,0,1,18.4,25.4Z" transform="translate(-16 -11)" fill="#ed1c23"/>
      </g>
      <g id="Group_424" data-name="Group 424" transform="translate(28.598 11.804)">
        <path id="Path_116169" data-name="Path 116169" d="M18.4,18.609a2.4,2.4,0,0,1-2.4-2.4A7.215,7.215,0,0,1,23.206,9a2.4,2.4,0,1,1,0,4.8,2.406,2.406,0,0,0-2.4,2.4A2.4,2.4,0,0,1,18.4,18.609Z" transform="translate(-16 -9)" fill="#ed1c23"/>
      </g>
      <g id="Group_425" data-name="Group 425" transform="translate(33.315 11.804)">
        <path id="Path_116170" data-name="Path 116170" d="M104.478,13.8H20.4a2.4,2.4,0,0,1,0-4.8h84.076a2.4,2.4,0,1,1,0,4.8Z" transform="translate(-18 -9)" fill="#ed1c23"/>
      </g>
      <g id="Group_426" data-name="Group 426" transform="translate(117.391 11.804)">
        <path id="Path_116171" data-name="Path 116171" d="M60.206,18.609a2.4,2.4,0,0,1-2.4-2.4,2.406,2.406,0,0,0-2.4-2.4,2.4,2.4,0,1,1,0-4.8,7.215,7.215,0,0,1,7.206,7.207A2.4,2.4,0,0,1,60.206,18.609Z" transform="translate(-53 -9)" fill="#ed1c23"/>
      </g>
      <g id="Group_427" data-name="Group 427" transform="translate(13.823 49.461)">
        <path id="Path_116172" data-name="Path 116172" d="M12.242,31.681a2.4,2.4,0,0,1-.728-4.691,48.736,48.736,0,0,1,24.046-1.408,2.4,2.4,0,1,1-.913,4.718,43.914,43.914,0,0,0-21.672,1.268,2.515,2.515,0,0,1-.733.113Z" transform="translate(-9.84 -24.693)" fill="#ed1c23"/>
      </g>
      <g id="Group_428" data-name="Group 428" transform="translate(36.647 39.889)">
        <path id="Path_116173" data-name="Path 116173" d="M21.76,35.931a2.4,2.4,0,0,1-1.016-4.581L43.089,20.932a2.4,2.4,0,1,1,2.03,4.355L22.774,35.706A2.34,2.34,0,0,1,21.76,35.931Z" transform="translate(-19.356 -20.706)" fill="#ed1c23"/>
      </g>
      <g id="Group_429" data-name="Group 429" transform="translate(58.972 39.391)">
        <path id="Path_116174" data-name="Path 116174" d="M35.126,34.512a2.4,2.4,0,0,1-1.019-4.579,2.211,2.211,0,0,0,1.019-3.125,2.211,2.211,0,0,0-3.051-1.228,2.4,2.4,0,0,1-2.03-4.355,6.905,6.905,0,0,1,9.433,3.553,6.909,6.909,0,0,1-3.341,9.51,2.39,2.39,0,0,1-1.011.223Z" transform="translate(-28.657 -20.498)" fill="#ed1c23"/>
      </g>
      <g id="Group_430" data-name="Group 430" transform="translate(40.589 48.59)">
        <path id="Path_116175" data-name="Path 116175" d="M23.4,39.611a2.4,2.4,0,0,1-1.019-4.579l22.46-10.473a2.4,2.4,0,0,1,2.032,4.353L24.417,39.385A2.375,2.375,0,0,1,23.4,39.611Z" transform="translate(-20.999 -24.331)" fill="#ed1c23"/>
      </g>
      <g id="Group_431" data-name="Group 431" transform="translate(49.634 102.608)">
        <path id="Path_116176" data-name="Path 116176" d="M27.171,71.238a2.4,2.4,0,0,1-1.578-4.213L48.08,47.437a2.4,2.4,0,1,1,3.156,3.622L28.749,70.647A2.4,2.4,0,0,1,27.171,71.238Z" transform="translate(-24.769 -46.846)" fill="#ed1c23"/>
      </g>
      <g id="Group_432" data-name="Group 432" transform="translate(72.094 102.608)">
        <path id="Path_116177" data-name="Path 116177" d="M59.017,71.238a2.389,2.389,0,0,1-1.576-.591L34.954,51.059a2.4,2.4,0,0,1,3.156-3.622L60.6,67.024a2.4,2.4,0,0,1-1.581,4.213Z" transform="translate(-34.13 -46.846)" fill="#ed1c23"/>
      </g>
      <g id="Group_433" data-name="Group 433" transform="translate(7 60.816)">
        <path id="Path_116178" data-name="Path 116178" d="M9.4,59.015a2.4,2.4,0,0,1-2.4-2.4V31.832a2.4,2.4,0,1,1,4.8,0V56.613A2.4,2.4,0,0,1,9.4,59.015Z" transform="translate(-7 -29.43)" fill="#ed1c23"/>
      </g>
      <g id="Group_434" data-name="Group 434" transform="translate(7 51.636)">
        <path id="Path_116179" data-name="Path 116179" d="M9.4,39.6A2.4,2.4,0,0,1,7,37.2a11.946,11.946,0,0,1,8.53-11.5,2.4,2.4,0,0,1,1.393,4.6A7.17,7.17,0,0,0,11.8,37.2,2.4,2.4,0,0,1,9.4,39.6Z" transform="translate(-7 -25.6)" fill="#ed1c23"/>
      </g>
      <g id="Group_435" data-name="Group 435" transform="translate(16.609 63.379)">
        <path id="Path_116180" data-name="Path 116180" d="M13.4,88.131a2.4,2.4,0,0,1-2.4-2.4V32.917a2.4,2.4,0,0,1,4.8,0V85.729A2.4,2.4,0,0,1,13.4,88.131Z" transform="translate(-11 -30.515)" fill="#ed1c23"/>
      </g>
      <g id="Group_436" data-name="Group 436" transform="translate(16.976 26.183)">
        <path id="Path_116181" data-name="Path 116181" d="M25.2,43.086A14.235,14.235,0,0,1,11.153,29.04,14.235,14.235,0,0,1,25.2,14.995,14.233,14.233,0,0,1,39.244,29.04,14.233,14.233,0,0,1,25.2,43.086Zm0-23.284a9.241,9.241,0,1,0,9.241,9.241A9.366,9.366,0,0,0,25.2,19.8Z" transform="translate(-11.153 -14.995)" fill="#ed1c23"/>
      </g>
      <g id="Group_437" data-name="Group 437" transform="translate(28.599 85.553)">
        <path id="Path_116182" data-name="Path 116182" d="M18.4,75.188a2.4,2.4,0,0,1-2.4-2.4V42.148a2.4,2.4,0,1,1,4.8,0V72.785A2.4,2.4,0,0,1,18.4,75.188Z" transform="translate(-16 -39.746)" fill="#ed1c23"/>
      </g>
      <g id="Group_438" data-name="Group 438" transform="translate(7 85.584)">
        <path id="Path_116183" data-name="Path 116183" d="M14.207,49.2A6.908,6.908,0,0,1,7,42.148a2.4,2.4,0,1,1,4.8,0,2.213,2.213,0,0,0,2.4,2.246,2.213,2.213,0,0,0,2.4-2.246,2.4,2.4,0,1,1,4.8,0A6.908,6.908,0,0,1,14.207,49.2Z" transform="translate(-7 -39.746)" fill="#ed1c23"/>
      </g>
      <g id="Group_439" data-name="Group 439" transform="translate(28.597 116.19)">
        <path id="Path_116184" data-name="Path 116184" d="M24.408,63.113a8.708,8.708,0,0,1-5.7-2.032A7.984,7.984,0,0,1,16,54.9a2.4,2.4,0,0,1,4.8,0c0,3.31,3.236,3.406,3.6,3.406s3.6-.1,3.6-3.406a2.4,2.4,0,1,1,4.8,0C32.815,60.293,28.585,63.113,24.408,63.113Z" transform="translate(-16 -52.5)" fill="#ed1c23"/>
      </g>
      <g id="Group_440" data-name="Group 440" transform="translate(16.609 116.19)">
        <path id="Path_116185" data-name="Path 116185" d="M19.408,63.113a8.708,8.708,0,0,1-5.7-2.032A7.984,7.984,0,0,1,11,54.9a2.4,2.4,0,1,1,4.8,0c0,3.31,3.236,3.406,3.6,3.406s3.6-.1,3.6-3.406a2.4,2.4,0,0,1,4.8,0C27.815,60.293,23.585,63.113,19.408,63.113Z" transform="translate(-11 -52.5)" fill="#ed1c23"/>
      </g>
    </g>
  </g>
</svg>
