<svg xmlns="http://www.w3.org/2000/svg" width="120" height="120" viewBox="0 0 120 120">
  <g id="Group_444" data-name="Group 444" transform="translate(-531 -6132)">
    <g id="Group_408" data-name="Group 408" transform="translate(303 925)">
      <circle id="Ellipse_13" data-name="Ellipse 13" cx="60" cy="60" r="60" transform="translate(228 5207)" fill="#fff"/>
    </g>
    <path id="solution" d="M117.306,0A42.975,42.975,0,0,1,157.5,27.421,42.3,42.3,0,0,1,145.9,74.374a12.1,12.1,0,0,0-4.27,9.441V94.286a10.183,10.183,0,0,1-3.04,7.252,10.432,10.432,0,0,1-2.171,1.649A17.845,17.845,0,0,1,118.579,120h-2.546a17.845,17.845,0,0,1-17.845-16.813,10.433,10.433,0,0,1-2.171-1.649,10.182,10.182,0,0,1-3.04-7.252V83.815a12.1,12.1,0,0,0-4.27-9.441A42.306,42.306,0,0,1,77.128,27.425,42.982,42.982,0,0,1,117.306,0Zm39.371,47.535H147.7a9.512,9.512,0,0,1-4.452,9.141,9.714,9.714,0,0,1-10.247,0,9.512,9.512,0,0,1-4.452-9.141h-9.6V59.089a1.63,1.63,0,0,1-.7,1.338,1.664,1.664,0,0,1-1.509.2h0a6.321,6.321,0,0,0-1.06-.277,6.434,6.434,0,0,0-1.1-.094,6.262,6.262,0,1,0,0,12.523,6.438,6.438,0,0,0,1.1-.094,6.328,6.328,0,0,0,1.06-.277,1.666,1.666,0,0,1,1.546.224,1.631,1.631,0,0,1,.667,1.4v14.83h19.366V83.815A15.449,15.449,0,0,1,143.7,71.926a39.439,39.439,0,0,0,9.833-13.278,38.693,38.693,0,0,0,3.139-11.113Zm-41.021,0H103.983a1.66,1.66,0,0,1-1.388-.745,1.627,1.627,0,0,1-.127-1.559,6.227,6.227,0,0,0-2.281-7.08,6.37,6.37,0,0,0-7.5.067,6.225,6.225,0,0,0-2.152,7.119,1.624,1.624,0,0,1-.2,1.5,1.657,1.657,0,0,1-1.352.7v0H77.935a38.692,38.692,0,0,0,3.139,11.113,39.439,39.439,0,0,0,9.833,13.278,15.449,15.449,0,0,1,5.383,11.889v5.048h19.366V76a9.667,9.667,0,0,1-9.235-4.407,9.466,9.466,0,0,1,0-10.153,9.667,9.667,0,0,1,9.235-4.407Zm-38-3.281h9.247a9.512,9.512,0,0,1,4.452-9.141,9.714,9.714,0,0,1,10.247,0,9.512,9.512,0,0,1,4.452,9.141h9.6V32.784a1.631,1.631,0,0,1,.667-1.4,1.666,1.666,0,0,1,1.546-.224,6.315,6.315,0,0,0,1.059.277,6.438,6.438,0,0,0,1.1.094,6.262,6.262,0,1,0,0-12.523,6.449,6.449,0,0,0-2.053.332,1.67,1.67,0,0,1-1.574-.125,1.637,1.637,0,0,1-.753-1.375V3.315A39.473,39.473,0,0,0,77.624,42.583q0,.84.035,1.67Zm41.3,0h11.673v0a1.658,1.658,0,0,1,1.352.7,1.624,1.624,0,0,1,.2,1.5,6.163,6.163,0,0,0-.279,1.05,6.322,6.322,0,1,0,12.214-.944A1.627,1.627,0,0,1,144.242,45a1.661,1.661,0,0,1,1.388-.746h11.321q.035-.83.035-1.67A39.474,39.474,0,0,0,118.962,3.315v12.47A9.667,9.667,0,0,1,128.19,20.2a9.466,9.466,0,0,1,0,10.149,9.667,9.667,0,0,1-9.231,4.406v9.5Zm14.021,60.157a10.47,10.47,0,0,1-1.7.139H103.339a10.476,10.476,0,0,1-1.7-.139,14.571,14.571,0,0,0,14.4,12.309h2.546a14.571,14.571,0,0,0,14.4-12.309Zm5.346-12.266H96.289v2.141a7.033,7.033,0,0,0,7.05,6.982h27.933a7.033,7.033,0,0,0,7.05-6.982Z" transform="translate(473.751 6132)" fill="#ed1c23" fill-rule="evenodd"/>
  </g>
</svg>
